M48
;DRILL file {KiCad 5.0.1+dfsg1-2} date Fr 05 Apr 2019 14:38:51 CEST
;FORMAT={-:-/ absolute / metric / decimal}
FMAT,2
METRIC,TZ
T1C0.400
T2C1.000
T3C1.100
T4C2.600
%
G90
G05
M71
T1
X147.32Y-79.502
X147.574Y-92.71
X148.59Y-74.422
X148.59Y-88.265
X149.86Y-68.834
X149.86Y-95.25
X150.114Y-78.867
X153.543Y-76.835
X153.67Y-67.31
X153.7Y-78.7
X154.94Y-100.33
X155.702Y-73.152
X155.702Y-79.248
X155.956Y-90.932
X156.5Y-83.2
X157.226Y-64.516
X157.7Y-81.8
X157.75Y-83.5
X157.988Y-67.818
X157.988Y-94.996
X158.496Y-76.454
X158.75Y-81.05
X159.258Y-66.548
X159.766Y-87.884
X159.8Y-81.
X160.Y-82.25
X160.02Y-64.516
X160.6Y-80.
X160.6Y-80.
X160.6Y-80.
X160.75Y-65.25
X160.782Y-71.374
X161.25Y-80.772
X162.052Y-69.088
X162.504Y-67.499
X162.56Y-66.04
X162.56Y-76.962
X164.Y-66.
X164.Y-66.
X164.15Y-74.422
X164.338Y-93.218
X164.592Y-78.74
X164.846Y-98.806
X165.1Y-67.31
X165.1Y-90.17
X165.354Y-77.978
X165.354Y-77.978
X165.608Y-74.168
X166.37Y-80.01
X166.878Y-83.058
X166.878Y-64.262
X166.9Y-78.
X167.64Y-97.282
X168.91Y-86.36
X169.1Y-64.65
X169.164Y-78.994
X169.926Y-66.294
X169.926Y-77.978
X170.434Y-96.774
X170.688Y-85.852
X171.196Y-80.264
X171.45Y-73.152
X171.45Y-82.55
X172.466Y-73.152
X172.72Y-66.04
X172.974Y-95.758
X173.228Y-87.884
X174.498Y-70.612
X174.752Y-64.516
X175.006Y-88.392
X175.514Y-87.122
X175.641Y-82.423
X175.8Y-85.6
X177.292Y-66.04
X177.292Y-71.374
X177.292Y-93.218
X177.546Y-79.502
X178.2Y-87.2
X178.308Y-85.344
X179.3Y-90.9
X180.34Y-100.33
X182.88Y-67.31
X182.88Y-74.93
X184.404Y-91.313
T2
X161.29Y-101.6
X163.83Y-101.6
X166.37Y-101.6
X168.91Y-101.6
X171.45Y-101.6
X173.99Y-101.6
T3
X154.94Y-62.23
X157.48Y-62.23
X160.02Y-62.23
X162.56Y-62.23
X165.1Y-62.23
X167.64Y-62.23
X170.18Y-62.23
X172.72Y-62.23
X175.26Y-62.23
X177.8Y-62.23
X180.34Y-62.23
T4
X148.59Y-63.5
X148.59Y-100.33
X186.69Y-63.5
X186.69Y-100.33
T0
M30
