G04 #@! TF.GenerationSoftware,KiCad,Pcbnew,5.0.1+dfsg1-2*
G04 #@! TF.CreationDate,2019-04-19T13:27:36+02:00*
G04 #@! TF.ProjectId,oled-controller,6F6C65642D636F6E74726F6C6C65722E,rev?*
G04 #@! TF.SameCoordinates,Original*
G04 #@! TF.FileFunction,Soldermask,Bot*
G04 #@! TF.FilePolarity,Negative*
%FSLAX46Y46*%
G04 Gerber Fmt 4.6, Leading zero omitted, Abs format (unit mm)*
G04 Created by KiCad (PCBNEW 5.0.1+dfsg1-2) date Fr 19 Apr 2019 13:27:36 CEST*
%MOMM*%
%LPD*%
G01*
G04 APERTURE LIST*
%ADD10C,0.100000*%
G04 APERTURE END LIST*
D10*
G36*
X174891000Y-102501000D02*
X173089000Y-102501000D01*
X173089000Y-100699000D01*
X174891000Y-100699000D01*
X174891000Y-102501000D01*
X174891000Y-102501000D01*
G37*
G36*
X171560443Y-100705519D02*
X171626627Y-100712037D01*
X171739853Y-100746384D01*
X171796467Y-100763557D01*
X171935087Y-100837652D01*
X171952991Y-100847222D01*
X171988729Y-100876552D01*
X172090186Y-100959814D01*
X172173448Y-101061271D01*
X172202778Y-101097009D01*
X172202779Y-101097011D01*
X172286443Y-101253533D01*
X172286443Y-101253534D01*
X172337963Y-101423373D01*
X172355359Y-101600000D01*
X172337963Y-101776627D01*
X172324382Y-101821396D01*
X172286443Y-101946467D01*
X172212348Y-102085087D01*
X172202778Y-102102991D01*
X172173448Y-102138729D01*
X172090186Y-102240186D01*
X171988729Y-102323448D01*
X171952991Y-102352778D01*
X171952989Y-102352779D01*
X171796467Y-102436443D01*
X171739853Y-102453616D01*
X171626627Y-102487963D01*
X171560442Y-102494482D01*
X171494260Y-102501000D01*
X171405740Y-102501000D01*
X171339558Y-102494482D01*
X171273373Y-102487963D01*
X171160147Y-102453616D01*
X171103533Y-102436443D01*
X170947011Y-102352779D01*
X170947009Y-102352778D01*
X170911271Y-102323448D01*
X170809814Y-102240186D01*
X170726552Y-102138729D01*
X170697222Y-102102991D01*
X170687652Y-102085087D01*
X170613557Y-101946467D01*
X170575618Y-101821396D01*
X170562037Y-101776627D01*
X170544641Y-101600000D01*
X170562037Y-101423373D01*
X170613557Y-101253534D01*
X170613557Y-101253533D01*
X170697221Y-101097011D01*
X170697222Y-101097009D01*
X170726552Y-101061271D01*
X170809814Y-100959814D01*
X170911271Y-100876552D01*
X170947009Y-100847222D01*
X170964913Y-100837652D01*
X171103533Y-100763557D01*
X171160147Y-100746384D01*
X171273373Y-100712037D01*
X171339557Y-100705519D01*
X171405740Y-100699000D01*
X171494260Y-100699000D01*
X171560443Y-100705519D01*
X171560443Y-100705519D01*
G37*
G36*
X161400443Y-100705519D02*
X161466627Y-100712037D01*
X161579853Y-100746384D01*
X161636467Y-100763557D01*
X161775087Y-100837652D01*
X161792991Y-100847222D01*
X161828729Y-100876552D01*
X161930186Y-100959814D01*
X162013448Y-101061271D01*
X162042778Y-101097009D01*
X162042779Y-101097011D01*
X162126443Y-101253533D01*
X162126443Y-101253534D01*
X162177963Y-101423373D01*
X162195359Y-101600000D01*
X162177963Y-101776627D01*
X162164382Y-101821396D01*
X162126443Y-101946467D01*
X162052348Y-102085087D01*
X162042778Y-102102991D01*
X162013448Y-102138729D01*
X161930186Y-102240186D01*
X161828729Y-102323448D01*
X161792991Y-102352778D01*
X161792989Y-102352779D01*
X161636467Y-102436443D01*
X161579853Y-102453616D01*
X161466627Y-102487963D01*
X161400442Y-102494482D01*
X161334260Y-102501000D01*
X161245740Y-102501000D01*
X161179558Y-102494482D01*
X161113373Y-102487963D01*
X161000147Y-102453616D01*
X160943533Y-102436443D01*
X160787011Y-102352779D01*
X160787009Y-102352778D01*
X160751271Y-102323448D01*
X160649814Y-102240186D01*
X160566552Y-102138729D01*
X160537222Y-102102991D01*
X160527652Y-102085087D01*
X160453557Y-101946467D01*
X160415618Y-101821396D01*
X160402037Y-101776627D01*
X160384641Y-101600000D01*
X160402037Y-101423373D01*
X160453557Y-101253534D01*
X160453557Y-101253533D01*
X160537221Y-101097011D01*
X160537222Y-101097009D01*
X160566552Y-101061271D01*
X160649814Y-100959814D01*
X160751271Y-100876552D01*
X160787009Y-100847222D01*
X160804913Y-100837652D01*
X160943533Y-100763557D01*
X161000147Y-100746384D01*
X161113373Y-100712037D01*
X161179557Y-100705519D01*
X161245740Y-100699000D01*
X161334260Y-100699000D01*
X161400443Y-100705519D01*
X161400443Y-100705519D01*
G37*
G36*
X163940443Y-100705519D02*
X164006627Y-100712037D01*
X164119853Y-100746384D01*
X164176467Y-100763557D01*
X164315087Y-100837652D01*
X164332991Y-100847222D01*
X164368729Y-100876552D01*
X164470186Y-100959814D01*
X164553448Y-101061271D01*
X164582778Y-101097009D01*
X164582779Y-101097011D01*
X164666443Y-101253533D01*
X164666443Y-101253534D01*
X164717963Y-101423373D01*
X164735359Y-101600000D01*
X164717963Y-101776627D01*
X164704382Y-101821396D01*
X164666443Y-101946467D01*
X164592348Y-102085087D01*
X164582778Y-102102991D01*
X164553448Y-102138729D01*
X164470186Y-102240186D01*
X164368729Y-102323448D01*
X164332991Y-102352778D01*
X164332989Y-102352779D01*
X164176467Y-102436443D01*
X164119853Y-102453616D01*
X164006627Y-102487963D01*
X163940442Y-102494482D01*
X163874260Y-102501000D01*
X163785740Y-102501000D01*
X163719558Y-102494482D01*
X163653373Y-102487963D01*
X163540147Y-102453616D01*
X163483533Y-102436443D01*
X163327011Y-102352779D01*
X163327009Y-102352778D01*
X163291271Y-102323448D01*
X163189814Y-102240186D01*
X163106552Y-102138729D01*
X163077222Y-102102991D01*
X163067652Y-102085087D01*
X162993557Y-101946467D01*
X162955618Y-101821396D01*
X162942037Y-101776627D01*
X162924641Y-101600000D01*
X162942037Y-101423373D01*
X162993557Y-101253534D01*
X162993557Y-101253533D01*
X163077221Y-101097011D01*
X163077222Y-101097009D01*
X163106552Y-101061271D01*
X163189814Y-100959814D01*
X163291271Y-100876552D01*
X163327009Y-100847222D01*
X163344913Y-100837652D01*
X163483533Y-100763557D01*
X163540147Y-100746384D01*
X163653373Y-100712037D01*
X163719557Y-100705519D01*
X163785740Y-100699000D01*
X163874260Y-100699000D01*
X163940443Y-100705519D01*
X163940443Y-100705519D01*
G37*
G36*
X169020443Y-100705519D02*
X169086627Y-100712037D01*
X169199853Y-100746384D01*
X169256467Y-100763557D01*
X169395087Y-100837652D01*
X169412991Y-100847222D01*
X169448729Y-100876552D01*
X169550186Y-100959814D01*
X169633448Y-101061271D01*
X169662778Y-101097009D01*
X169662779Y-101097011D01*
X169746443Y-101253533D01*
X169746443Y-101253534D01*
X169797963Y-101423373D01*
X169815359Y-101600000D01*
X169797963Y-101776627D01*
X169784382Y-101821396D01*
X169746443Y-101946467D01*
X169672348Y-102085087D01*
X169662778Y-102102991D01*
X169633448Y-102138729D01*
X169550186Y-102240186D01*
X169448729Y-102323448D01*
X169412991Y-102352778D01*
X169412989Y-102352779D01*
X169256467Y-102436443D01*
X169199853Y-102453616D01*
X169086627Y-102487963D01*
X169020442Y-102494482D01*
X168954260Y-102501000D01*
X168865740Y-102501000D01*
X168799558Y-102494482D01*
X168733373Y-102487963D01*
X168620147Y-102453616D01*
X168563533Y-102436443D01*
X168407011Y-102352779D01*
X168407009Y-102352778D01*
X168371271Y-102323448D01*
X168269814Y-102240186D01*
X168186552Y-102138729D01*
X168157222Y-102102991D01*
X168147652Y-102085087D01*
X168073557Y-101946467D01*
X168035618Y-101821396D01*
X168022037Y-101776627D01*
X168004641Y-101600000D01*
X168022037Y-101423373D01*
X168073557Y-101253534D01*
X168073557Y-101253533D01*
X168157221Y-101097011D01*
X168157222Y-101097009D01*
X168186552Y-101061271D01*
X168269814Y-100959814D01*
X168371271Y-100876552D01*
X168407009Y-100847222D01*
X168424913Y-100837652D01*
X168563533Y-100763557D01*
X168620147Y-100746384D01*
X168733373Y-100712037D01*
X168799557Y-100705519D01*
X168865740Y-100699000D01*
X168954260Y-100699000D01*
X169020443Y-100705519D01*
X169020443Y-100705519D01*
G37*
G36*
X166480443Y-100705519D02*
X166546627Y-100712037D01*
X166659853Y-100746384D01*
X166716467Y-100763557D01*
X166855087Y-100837652D01*
X166872991Y-100847222D01*
X166908729Y-100876552D01*
X167010186Y-100959814D01*
X167093448Y-101061271D01*
X167122778Y-101097009D01*
X167122779Y-101097011D01*
X167206443Y-101253533D01*
X167206443Y-101253534D01*
X167257963Y-101423373D01*
X167275359Y-101600000D01*
X167257963Y-101776627D01*
X167244382Y-101821396D01*
X167206443Y-101946467D01*
X167132348Y-102085087D01*
X167122778Y-102102991D01*
X167093448Y-102138729D01*
X167010186Y-102240186D01*
X166908729Y-102323448D01*
X166872991Y-102352778D01*
X166872989Y-102352779D01*
X166716467Y-102436443D01*
X166659853Y-102453616D01*
X166546627Y-102487963D01*
X166480442Y-102494482D01*
X166414260Y-102501000D01*
X166325740Y-102501000D01*
X166259558Y-102494482D01*
X166193373Y-102487963D01*
X166080147Y-102453616D01*
X166023533Y-102436443D01*
X165867011Y-102352779D01*
X165867009Y-102352778D01*
X165831271Y-102323448D01*
X165729814Y-102240186D01*
X165646552Y-102138729D01*
X165617222Y-102102991D01*
X165607652Y-102085087D01*
X165533557Y-101946467D01*
X165495618Y-101821396D01*
X165482037Y-101776627D01*
X165464641Y-101600000D01*
X165482037Y-101423373D01*
X165533557Y-101253534D01*
X165533557Y-101253533D01*
X165617221Y-101097011D01*
X165617222Y-101097009D01*
X165646552Y-101061271D01*
X165729814Y-100959814D01*
X165831271Y-100876552D01*
X165867009Y-100847222D01*
X165884913Y-100837652D01*
X166023533Y-100763557D01*
X166080147Y-100746384D01*
X166193373Y-100712037D01*
X166259557Y-100705519D01*
X166325740Y-100699000D01*
X166414260Y-100699000D01*
X166480443Y-100705519D01*
X166480443Y-100705519D01*
G37*
G36*
X148942527Y-98818736D02*
X149042410Y-98838604D01*
X149324674Y-98955521D01*
X149578705Y-99125259D01*
X149794741Y-99341295D01*
X149964479Y-99595326D01*
X150081396Y-99877590D01*
X150141000Y-100177240D01*
X150141000Y-100482760D01*
X150081396Y-100782410D01*
X149964479Y-101064674D01*
X149794741Y-101318705D01*
X149578705Y-101534741D01*
X149324674Y-101704479D01*
X149042410Y-101821396D01*
X148942527Y-101841264D01*
X148742762Y-101881000D01*
X148437238Y-101881000D01*
X148237473Y-101841264D01*
X148137590Y-101821396D01*
X147855326Y-101704479D01*
X147601295Y-101534741D01*
X147385259Y-101318705D01*
X147215521Y-101064674D01*
X147098604Y-100782410D01*
X147039000Y-100482760D01*
X147039000Y-100177240D01*
X147098604Y-99877590D01*
X147215521Y-99595326D01*
X147385259Y-99341295D01*
X147601295Y-99125259D01*
X147855326Y-98955521D01*
X148137590Y-98838604D01*
X148237473Y-98818736D01*
X148437238Y-98779000D01*
X148742762Y-98779000D01*
X148942527Y-98818736D01*
X148942527Y-98818736D01*
G37*
G36*
X187042527Y-98818736D02*
X187142410Y-98838604D01*
X187424674Y-98955521D01*
X187678705Y-99125259D01*
X187894741Y-99341295D01*
X188064479Y-99595326D01*
X188181396Y-99877590D01*
X188241000Y-100177240D01*
X188241000Y-100482760D01*
X188181396Y-100782410D01*
X188064479Y-101064674D01*
X187894741Y-101318705D01*
X187678705Y-101534741D01*
X187424674Y-101704479D01*
X187142410Y-101821396D01*
X187042527Y-101841264D01*
X186842762Y-101881000D01*
X186537238Y-101881000D01*
X186337473Y-101841264D01*
X186237590Y-101821396D01*
X185955326Y-101704479D01*
X185701295Y-101534741D01*
X185485259Y-101318705D01*
X185315521Y-101064674D01*
X185198604Y-100782410D01*
X185139000Y-100482760D01*
X185139000Y-100177240D01*
X185198604Y-99877590D01*
X185315521Y-99595326D01*
X185485259Y-99341295D01*
X185701295Y-99125259D01*
X185955326Y-98955521D01*
X186237590Y-98838604D01*
X186337473Y-98818736D01*
X186537238Y-98779000D01*
X186842762Y-98779000D01*
X187042527Y-98818736D01*
X187042527Y-98818736D01*
G37*
G36*
X184169499Y-95998445D02*
X184206993Y-96009819D01*
X184241557Y-96028294D01*
X184271847Y-96053153D01*
X184296706Y-96083443D01*
X184315181Y-96118007D01*
X184326555Y-96155501D01*
X184331000Y-96200638D01*
X184331000Y-96839362D01*
X184326555Y-96884499D01*
X184315181Y-96921993D01*
X184296706Y-96956557D01*
X184271847Y-96986847D01*
X184241557Y-97011706D01*
X184206993Y-97030181D01*
X184169499Y-97041555D01*
X184124362Y-97046000D01*
X183385638Y-97046000D01*
X183340501Y-97041555D01*
X183303007Y-97030181D01*
X183268443Y-97011706D01*
X183238153Y-96986847D01*
X183213294Y-96956557D01*
X183194819Y-96921993D01*
X183183445Y-96884499D01*
X183179000Y-96839362D01*
X183179000Y-96200638D01*
X183183445Y-96155501D01*
X183194819Y-96118007D01*
X183213294Y-96083443D01*
X183238153Y-96053153D01*
X183268443Y-96028294D01*
X183303007Y-96009819D01*
X183340501Y-95998445D01*
X183385638Y-95994000D01*
X184124362Y-95994000D01*
X184169499Y-95998445D01*
X184169499Y-95998445D01*
G37*
G36*
X180359499Y-95998445D02*
X180396993Y-96009819D01*
X180431557Y-96028294D01*
X180461847Y-96053153D01*
X180486706Y-96083443D01*
X180505181Y-96118007D01*
X180516555Y-96155501D01*
X180521000Y-96200638D01*
X180521000Y-96839362D01*
X180516555Y-96884499D01*
X180505181Y-96921993D01*
X180486706Y-96956557D01*
X180461847Y-96986847D01*
X180431557Y-97011706D01*
X180396993Y-97030181D01*
X180359499Y-97041555D01*
X180314362Y-97046000D01*
X179575638Y-97046000D01*
X179530501Y-97041555D01*
X179493007Y-97030181D01*
X179458443Y-97011706D01*
X179428153Y-96986847D01*
X179403294Y-96956557D01*
X179384819Y-96921993D01*
X179373445Y-96884499D01*
X179369000Y-96839362D01*
X179369000Y-96200638D01*
X179373445Y-96155501D01*
X179384819Y-96118007D01*
X179403294Y-96083443D01*
X179428153Y-96053153D01*
X179458443Y-96028294D01*
X179493007Y-96009819D01*
X179530501Y-95998445D01*
X179575638Y-95994000D01*
X180314362Y-95994000D01*
X180359499Y-95998445D01*
X180359499Y-95998445D01*
G37*
G36*
X178609499Y-95998445D02*
X178646993Y-96009819D01*
X178681557Y-96028294D01*
X178711847Y-96053153D01*
X178736706Y-96083443D01*
X178755181Y-96118007D01*
X178766555Y-96155501D01*
X178771000Y-96200638D01*
X178771000Y-96839362D01*
X178766555Y-96884499D01*
X178755181Y-96921993D01*
X178736706Y-96956557D01*
X178711847Y-96986847D01*
X178681557Y-97011706D01*
X178646993Y-97030181D01*
X178609499Y-97041555D01*
X178564362Y-97046000D01*
X177825638Y-97046000D01*
X177780501Y-97041555D01*
X177743007Y-97030181D01*
X177708443Y-97011706D01*
X177678153Y-96986847D01*
X177653294Y-96956557D01*
X177634819Y-96921993D01*
X177623445Y-96884499D01*
X177619000Y-96839362D01*
X177619000Y-96200638D01*
X177623445Y-96155501D01*
X177634819Y-96118007D01*
X177653294Y-96083443D01*
X177678153Y-96053153D01*
X177708443Y-96028294D01*
X177743007Y-96009819D01*
X177780501Y-95998445D01*
X177825638Y-95994000D01*
X178564362Y-95994000D01*
X178609499Y-95998445D01*
X178609499Y-95998445D01*
G37*
G36*
X157894499Y-95998445D02*
X157931993Y-96009819D01*
X157966557Y-96028294D01*
X157996847Y-96053153D01*
X158021706Y-96083443D01*
X158040181Y-96118007D01*
X158051555Y-96155501D01*
X158056000Y-96200638D01*
X158056000Y-96839362D01*
X158051555Y-96884499D01*
X158040181Y-96921993D01*
X158021706Y-96956557D01*
X157996847Y-96986847D01*
X157966557Y-97011706D01*
X157931993Y-97030181D01*
X157894499Y-97041555D01*
X157849362Y-97046000D01*
X157110638Y-97046000D01*
X157065501Y-97041555D01*
X157028007Y-97030181D01*
X156993443Y-97011706D01*
X156963153Y-96986847D01*
X156938294Y-96956557D01*
X156919819Y-96921993D01*
X156908445Y-96884499D01*
X156904000Y-96839362D01*
X156904000Y-96200638D01*
X156908445Y-96155501D01*
X156919819Y-96118007D01*
X156938294Y-96083443D01*
X156963153Y-96053153D01*
X156993443Y-96028294D01*
X157028007Y-96009819D01*
X157065501Y-95998445D01*
X157110638Y-95994000D01*
X157849362Y-95994000D01*
X157894499Y-95998445D01*
X157894499Y-95998445D01*
G37*
G36*
X156144499Y-95998445D02*
X156181993Y-96009819D01*
X156216557Y-96028294D01*
X156246847Y-96053153D01*
X156271706Y-96083443D01*
X156290181Y-96118007D01*
X156301555Y-96155501D01*
X156306000Y-96200638D01*
X156306000Y-96839362D01*
X156301555Y-96884499D01*
X156290181Y-96921993D01*
X156271706Y-96956557D01*
X156246847Y-96986847D01*
X156216557Y-97011706D01*
X156181993Y-97030181D01*
X156144499Y-97041555D01*
X156099362Y-97046000D01*
X155360638Y-97046000D01*
X155315501Y-97041555D01*
X155278007Y-97030181D01*
X155243443Y-97011706D01*
X155213153Y-96986847D01*
X155188294Y-96956557D01*
X155169819Y-96921993D01*
X155158445Y-96884499D01*
X155154000Y-96839362D01*
X155154000Y-96200638D01*
X155158445Y-96155501D01*
X155169819Y-96118007D01*
X155188294Y-96083443D01*
X155213153Y-96053153D01*
X155243443Y-96028294D01*
X155278007Y-96009819D01*
X155315501Y-95998445D01*
X155360638Y-95994000D01*
X156099362Y-95994000D01*
X156144499Y-95998445D01*
X156144499Y-95998445D01*
G37*
G36*
X153689499Y-95998445D02*
X153726993Y-96009819D01*
X153761557Y-96028294D01*
X153791847Y-96053153D01*
X153816706Y-96083443D01*
X153835181Y-96118007D01*
X153846555Y-96155501D01*
X153851000Y-96200638D01*
X153851000Y-96839362D01*
X153846555Y-96884499D01*
X153835181Y-96921993D01*
X153816706Y-96956557D01*
X153791847Y-96986847D01*
X153761557Y-97011706D01*
X153726993Y-97030181D01*
X153689499Y-97041555D01*
X153644362Y-97046000D01*
X152905638Y-97046000D01*
X152860501Y-97041555D01*
X152823007Y-97030181D01*
X152788443Y-97011706D01*
X152758153Y-96986847D01*
X152733294Y-96956557D01*
X152714819Y-96921993D01*
X152703445Y-96884499D01*
X152699000Y-96839362D01*
X152699000Y-96200638D01*
X152703445Y-96155501D01*
X152714819Y-96118007D01*
X152733294Y-96083443D01*
X152758153Y-96053153D01*
X152788443Y-96028294D01*
X152823007Y-96009819D01*
X152860501Y-95998445D01*
X152905638Y-95994000D01*
X153644362Y-95994000D01*
X153689499Y-95998445D01*
X153689499Y-95998445D01*
G37*
G36*
X182419499Y-95998445D02*
X182456993Y-96009819D01*
X182491557Y-96028294D01*
X182521847Y-96053153D01*
X182546706Y-96083443D01*
X182565181Y-96118007D01*
X182576555Y-96155501D01*
X182581000Y-96200638D01*
X182581000Y-96839362D01*
X182576555Y-96884499D01*
X182565181Y-96921993D01*
X182546706Y-96956557D01*
X182521847Y-96986847D01*
X182491557Y-97011706D01*
X182456993Y-97030181D01*
X182419499Y-97041555D01*
X182374362Y-97046000D01*
X181635638Y-97046000D01*
X181590501Y-97041555D01*
X181553007Y-97030181D01*
X181518443Y-97011706D01*
X181488153Y-96986847D01*
X181463294Y-96956557D01*
X181444819Y-96921993D01*
X181433445Y-96884499D01*
X181429000Y-96839362D01*
X181429000Y-96200638D01*
X181433445Y-96155501D01*
X181444819Y-96118007D01*
X181463294Y-96083443D01*
X181488153Y-96053153D01*
X181518443Y-96028294D01*
X181553007Y-96009819D01*
X181590501Y-95998445D01*
X181635638Y-95994000D01*
X182374362Y-95994000D01*
X182419499Y-95998445D01*
X182419499Y-95998445D01*
G37*
G36*
X151939499Y-95998445D02*
X151976993Y-96009819D01*
X152011557Y-96028294D01*
X152041847Y-96053153D01*
X152066706Y-96083443D01*
X152085181Y-96118007D01*
X152096555Y-96155501D01*
X152101000Y-96200638D01*
X152101000Y-96839362D01*
X152096555Y-96884499D01*
X152085181Y-96921993D01*
X152066706Y-96956557D01*
X152041847Y-96986847D01*
X152011557Y-97011706D01*
X151976993Y-97030181D01*
X151939499Y-97041555D01*
X151894362Y-97046000D01*
X151155638Y-97046000D01*
X151110501Y-97041555D01*
X151073007Y-97030181D01*
X151038443Y-97011706D01*
X151008153Y-96986847D01*
X150983294Y-96956557D01*
X150964819Y-96921993D01*
X150953445Y-96884499D01*
X150949000Y-96839362D01*
X150949000Y-96200638D01*
X150953445Y-96155501D01*
X150964819Y-96118007D01*
X150983294Y-96083443D01*
X151008153Y-96053153D01*
X151038443Y-96028294D01*
X151073007Y-96009819D01*
X151110501Y-95998445D01*
X151155638Y-95994000D01*
X151894362Y-95994000D01*
X151939499Y-95998445D01*
X151939499Y-95998445D01*
G37*
G36*
X187012000Y-88051000D02*
X185210000Y-88051000D01*
X185210000Y-85949000D01*
X187012000Y-85949000D01*
X187012000Y-88051000D01*
X187012000Y-88051000D01*
G37*
G36*
X181562000Y-88051000D02*
X179760000Y-88051000D01*
X179760000Y-85949000D01*
X181562000Y-85949000D01*
X181562000Y-88051000D01*
X181562000Y-88051000D01*
G37*
G36*
X154331000Y-86146000D02*
X151829000Y-86146000D01*
X151829000Y-85304000D01*
X154331000Y-85304000D01*
X154331000Y-86146000D01*
X154331000Y-86146000D01*
G37*
G36*
X150431000Y-86146000D02*
X147929000Y-86146000D01*
X147929000Y-85304000D01*
X150431000Y-85304000D01*
X150431000Y-86146000D01*
X150431000Y-86146000D01*
G37*
G36*
X183421721Y-84220174D02*
X183521995Y-84261709D01*
X183612245Y-84322012D01*
X183688988Y-84398755D01*
X183749291Y-84489005D01*
X183790826Y-84589279D01*
X183812000Y-84695730D01*
X183812000Y-84804270D01*
X183790826Y-84910721D01*
X183749291Y-85010995D01*
X183688988Y-85101245D01*
X183612245Y-85177988D01*
X183521995Y-85238291D01*
X183421721Y-85279826D01*
X183315270Y-85301000D01*
X183206730Y-85301000D01*
X183100279Y-85279826D01*
X183000005Y-85238291D01*
X182909755Y-85177988D01*
X182833012Y-85101245D01*
X182772709Y-85010995D01*
X182731174Y-84910721D01*
X182710000Y-84804270D01*
X182710000Y-84695730D01*
X182731174Y-84589279D01*
X182772709Y-84489005D01*
X182833012Y-84398755D01*
X182909755Y-84322012D01*
X183000005Y-84261709D01*
X183100279Y-84220174D01*
X183206730Y-84199000D01*
X183315270Y-84199000D01*
X183421721Y-84220174D01*
X183421721Y-84220174D01*
G37*
G36*
X154331000Y-84876000D02*
X151829000Y-84876000D01*
X151829000Y-84034000D01*
X154331000Y-84034000D01*
X154331000Y-84876000D01*
X154331000Y-84876000D01*
G37*
G36*
X150431000Y-84876000D02*
X147929000Y-84876000D01*
X147929000Y-84034000D01*
X150431000Y-84034000D01*
X150431000Y-84876000D01*
X150431000Y-84876000D01*
G37*
G36*
X181612000Y-84451000D02*
X179510000Y-84451000D01*
X179510000Y-80649000D01*
X181612000Y-80649000D01*
X181612000Y-84451000D01*
X181612000Y-84451000D01*
G37*
G36*
X154331000Y-83606000D02*
X151829000Y-83606000D01*
X151829000Y-82764000D01*
X154331000Y-82764000D01*
X154331000Y-83606000D01*
X154331000Y-83606000D01*
G37*
G36*
X150431000Y-83606000D02*
X147929000Y-83606000D01*
X147929000Y-82764000D01*
X150431000Y-82764000D01*
X150431000Y-83606000D01*
X150431000Y-83606000D01*
G37*
G36*
X150431000Y-82336000D02*
X147929000Y-82336000D01*
X147929000Y-81494000D01*
X150431000Y-81494000D01*
X150431000Y-82336000D01*
X150431000Y-82336000D01*
G37*
G36*
X154331000Y-82336000D02*
X151829000Y-82336000D01*
X151829000Y-81494000D01*
X154331000Y-81494000D01*
X154331000Y-82336000D01*
X154331000Y-82336000D01*
G37*
G36*
X154331000Y-81066000D02*
X151829000Y-81066000D01*
X151829000Y-80224000D01*
X154331000Y-80224000D01*
X154331000Y-81066000D01*
X154331000Y-81066000D01*
G37*
G36*
X150431000Y-81066000D02*
X147929000Y-81066000D01*
X147929000Y-80224000D01*
X150431000Y-80224000D01*
X150431000Y-81066000D01*
X150431000Y-81066000D01*
G37*
G36*
X183421721Y-79820174D02*
X183521995Y-79861709D01*
X183612245Y-79922012D01*
X183688988Y-79998755D01*
X183749291Y-80089005D01*
X183790826Y-80189279D01*
X183812000Y-80295730D01*
X183812000Y-80404270D01*
X183790826Y-80510721D01*
X183749291Y-80610995D01*
X183688988Y-80701245D01*
X183612245Y-80777988D01*
X183521995Y-80838291D01*
X183421721Y-80879826D01*
X183315270Y-80901000D01*
X183206730Y-80901000D01*
X183100279Y-80879826D01*
X183000005Y-80838291D01*
X182909755Y-80777988D01*
X182833012Y-80701245D01*
X182772709Y-80610995D01*
X182731174Y-80510721D01*
X182710000Y-80404270D01*
X182710000Y-80295730D01*
X182731174Y-80189279D01*
X182772709Y-80089005D01*
X182833012Y-79998755D01*
X182909755Y-79922012D01*
X183000005Y-79861709D01*
X183100279Y-79820174D01*
X183206730Y-79799000D01*
X183315270Y-79799000D01*
X183421721Y-79820174D01*
X183421721Y-79820174D01*
G37*
G36*
X181562000Y-79151000D02*
X179760000Y-79151000D01*
X179760000Y-77049000D01*
X181562000Y-77049000D01*
X181562000Y-79151000D01*
X181562000Y-79151000D01*
G37*
G36*
X187012000Y-79151000D02*
X185210000Y-79151000D01*
X185210000Y-77049000D01*
X187012000Y-77049000D01*
X187012000Y-79151000D01*
X187012000Y-79151000D01*
G37*
G36*
X162649000Y-74865000D02*
X159547000Y-74865000D01*
X159547000Y-72963000D01*
X162649000Y-72963000D01*
X162649000Y-74865000D01*
X162649000Y-74865000D01*
G37*
G36*
X176749000Y-74865000D02*
X173647000Y-74865000D01*
X173647000Y-72963000D01*
X176749000Y-72963000D01*
X176749000Y-74865000D01*
X176749000Y-74865000D01*
G37*
G36*
X154959499Y-71233445D02*
X154996993Y-71244819D01*
X155031557Y-71263294D01*
X155061847Y-71288153D01*
X155086706Y-71318443D01*
X155105181Y-71353007D01*
X155116555Y-71390501D01*
X155121000Y-71435638D01*
X155121000Y-72074362D01*
X155116555Y-72119499D01*
X155105181Y-72156993D01*
X155086706Y-72191557D01*
X155061847Y-72221847D01*
X155031557Y-72246706D01*
X154996993Y-72265181D01*
X154959499Y-72276555D01*
X154914362Y-72281000D01*
X154175638Y-72281000D01*
X154130501Y-72276555D01*
X154093007Y-72265181D01*
X154058443Y-72246706D01*
X154028153Y-72221847D01*
X154003294Y-72191557D01*
X153984819Y-72156993D01*
X153973445Y-72119499D01*
X153969000Y-72074362D01*
X153969000Y-71435638D01*
X153973445Y-71390501D01*
X153984819Y-71353007D01*
X154003294Y-71318443D01*
X154028153Y-71288153D01*
X154058443Y-71263294D01*
X154093007Y-71244819D01*
X154130501Y-71233445D01*
X154175638Y-71229000D01*
X154914362Y-71229000D01*
X154959499Y-71233445D01*
X154959499Y-71233445D01*
G37*
G36*
X153209499Y-71233445D02*
X153246993Y-71244819D01*
X153281557Y-71263294D01*
X153311847Y-71288153D01*
X153336706Y-71318443D01*
X153355181Y-71353007D01*
X153366555Y-71390501D01*
X153371000Y-71435638D01*
X153371000Y-72074362D01*
X153366555Y-72119499D01*
X153355181Y-72156993D01*
X153336706Y-72191557D01*
X153311847Y-72221847D01*
X153281557Y-72246706D01*
X153246993Y-72265181D01*
X153209499Y-72276555D01*
X153164362Y-72281000D01*
X152425638Y-72281000D01*
X152380501Y-72276555D01*
X152343007Y-72265181D01*
X152308443Y-72246706D01*
X152278153Y-72221847D01*
X152253294Y-72191557D01*
X152234819Y-72156993D01*
X152223445Y-72119499D01*
X152219000Y-72074362D01*
X152219000Y-71435638D01*
X152223445Y-71390501D01*
X152234819Y-71353007D01*
X152253294Y-71318443D01*
X152278153Y-71288153D01*
X152308443Y-71263294D01*
X152343007Y-71244819D01*
X152380501Y-71233445D01*
X152425638Y-71229000D01*
X153164362Y-71229000D01*
X153209499Y-71233445D01*
X153209499Y-71233445D01*
G37*
G36*
X148764499Y-71233445D02*
X148801993Y-71244819D01*
X148836557Y-71263294D01*
X148866847Y-71288153D01*
X148891706Y-71318443D01*
X148910181Y-71353007D01*
X148921555Y-71390501D01*
X148926000Y-71435638D01*
X148926000Y-72074362D01*
X148921555Y-72119499D01*
X148910181Y-72156993D01*
X148891706Y-72191557D01*
X148866847Y-72221847D01*
X148836557Y-72246706D01*
X148801993Y-72265181D01*
X148764499Y-72276555D01*
X148719362Y-72281000D01*
X147980638Y-72281000D01*
X147935501Y-72276555D01*
X147898007Y-72265181D01*
X147863443Y-72246706D01*
X147833153Y-72221847D01*
X147808294Y-72191557D01*
X147789819Y-72156993D01*
X147778445Y-72119499D01*
X147774000Y-72074362D01*
X147774000Y-71435638D01*
X147778445Y-71390501D01*
X147789819Y-71353007D01*
X147808294Y-71318443D01*
X147833153Y-71288153D01*
X147863443Y-71263294D01*
X147898007Y-71244819D01*
X147935501Y-71233445D01*
X147980638Y-71229000D01*
X148719362Y-71229000D01*
X148764499Y-71233445D01*
X148764499Y-71233445D01*
G37*
G36*
X150514499Y-71233445D02*
X150551993Y-71244819D01*
X150586557Y-71263294D01*
X150616847Y-71288153D01*
X150641706Y-71318443D01*
X150660181Y-71353007D01*
X150671555Y-71390501D01*
X150676000Y-71435638D01*
X150676000Y-72074362D01*
X150671555Y-72119499D01*
X150660181Y-72156993D01*
X150641706Y-72191557D01*
X150616847Y-72221847D01*
X150586557Y-72246706D01*
X150551993Y-72265181D01*
X150514499Y-72276555D01*
X150469362Y-72281000D01*
X149730638Y-72281000D01*
X149685501Y-72276555D01*
X149648007Y-72265181D01*
X149613443Y-72246706D01*
X149583153Y-72221847D01*
X149558294Y-72191557D01*
X149539819Y-72156993D01*
X149528445Y-72119499D01*
X149524000Y-72074362D01*
X149524000Y-71435638D01*
X149528445Y-71390501D01*
X149539819Y-71353007D01*
X149558294Y-71318443D01*
X149583153Y-71288153D01*
X149613443Y-71263294D01*
X149648007Y-71244819D01*
X149685501Y-71233445D01*
X149730638Y-71229000D01*
X150469362Y-71229000D01*
X150514499Y-71233445D01*
X150514499Y-71233445D01*
G37*
G36*
X173099000Y-71865000D02*
X163197000Y-71865000D01*
X163197000Y-69463000D01*
X173099000Y-69463000D01*
X173099000Y-71865000D01*
X173099000Y-71865000D01*
G37*
G36*
X169310499Y-67169445D02*
X169347993Y-67180819D01*
X169382557Y-67199294D01*
X169412847Y-67224153D01*
X169437706Y-67254443D01*
X169456181Y-67289007D01*
X169467555Y-67326501D01*
X169472000Y-67371638D01*
X169472000Y-68010362D01*
X169467555Y-68055499D01*
X169456181Y-68092993D01*
X169437706Y-68127557D01*
X169412847Y-68157847D01*
X169382557Y-68182706D01*
X169347993Y-68201181D01*
X169310499Y-68212555D01*
X169265362Y-68217000D01*
X168526638Y-68217000D01*
X168481501Y-68212555D01*
X168444007Y-68201181D01*
X168409443Y-68182706D01*
X168379153Y-68157847D01*
X168354294Y-68127557D01*
X168335819Y-68092993D01*
X168324445Y-68055499D01*
X168320000Y-68010362D01*
X168320000Y-67371638D01*
X168324445Y-67326501D01*
X168335819Y-67289007D01*
X168354294Y-67254443D01*
X168379153Y-67224153D01*
X168409443Y-67199294D01*
X168444007Y-67180819D01*
X168481501Y-67169445D01*
X168526638Y-67165000D01*
X169265362Y-67165000D01*
X169310499Y-67169445D01*
X169310499Y-67169445D01*
G37*
G36*
X167560499Y-67169445D02*
X167597993Y-67180819D01*
X167632557Y-67199294D01*
X167662847Y-67224153D01*
X167687706Y-67254443D01*
X167706181Y-67289007D01*
X167717555Y-67326501D01*
X167722000Y-67371638D01*
X167722000Y-68010362D01*
X167717555Y-68055499D01*
X167706181Y-68092993D01*
X167687706Y-68127557D01*
X167662847Y-68157847D01*
X167632557Y-68182706D01*
X167597993Y-68201181D01*
X167560499Y-68212555D01*
X167515362Y-68217000D01*
X166776638Y-68217000D01*
X166731501Y-68212555D01*
X166694007Y-68201181D01*
X166659443Y-68182706D01*
X166629153Y-68157847D01*
X166604294Y-68127557D01*
X166585819Y-68092993D01*
X166574445Y-68055499D01*
X166570000Y-68010362D01*
X166570000Y-67371638D01*
X166574445Y-67326501D01*
X166585819Y-67289007D01*
X166604294Y-67254443D01*
X166629153Y-67224153D01*
X166659443Y-67199294D01*
X166694007Y-67180819D01*
X166731501Y-67169445D01*
X166776638Y-67165000D01*
X167515362Y-67165000D01*
X167560499Y-67169445D01*
X167560499Y-67169445D01*
G37*
G36*
X148942527Y-61988736D02*
X149042410Y-62008604D01*
X149324674Y-62125521D01*
X149578705Y-62295259D01*
X149794741Y-62511295D01*
X149964479Y-62765326D01*
X150033455Y-62931850D01*
X150081396Y-63047591D01*
X150129354Y-63288689D01*
X150141000Y-63347240D01*
X150141000Y-63652760D01*
X150081396Y-63952410D01*
X149964479Y-64234674D01*
X149794741Y-64488705D01*
X149578705Y-64704741D01*
X149324674Y-64874479D01*
X149042410Y-64991396D01*
X148942527Y-65011264D01*
X148742762Y-65051000D01*
X148437238Y-65051000D01*
X148237473Y-65011264D01*
X148137590Y-64991396D01*
X147855326Y-64874479D01*
X147601295Y-64704741D01*
X147385259Y-64488705D01*
X147215521Y-64234674D01*
X147098604Y-63952410D01*
X147039000Y-63652760D01*
X147039000Y-63347240D01*
X147050647Y-63288689D01*
X147098604Y-63047591D01*
X147146545Y-62931850D01*
X147215521Y-62765326D01*
X147385259Y-62511295D01*
X147601295Y-62295259D01*
X147855326Y-62125521D01*
X148137590Y-62008604D01*
X148237473Y-61988736D01*
X148437238Y-61949000D01*
X148742762Y-61949000D01*
X148942527Y-61988736D01*
X148942527Y-61988736D01*
G37*
G36*
X187042527Y-61988736D02*
X187142410Y-62008604D01*
X187424674Y-62125521D01*
X187678705Y-62295259D01*
X187894741Y-62511295D01*
X188064479Y-62765326D01*
X188133455Y-62931850D01*
X188181396Y-63047591D01*
X188229354Y-63288689D01*
X188241000Y-63347240D01*
X188241000Y-63652760D01*
X188181396Y-63952410D01*
X188064479Y-64234674D01*
X187894741Y-64488705D01*
X187678705Y-64704741D01*
X187424674Y-64874479D01*
X187142410Y-64991396D01*
X187042527Y-65011264D01*
X186842762Y-65051000D01*
X186537238Y-65051000D01*
X186337473Y-65011264D01*
X186237590Y-64991396D01*
X185955326Y-64874479D01*
X185701295Y-64704741D01*
X185485259Y-64488705D01*
X185315521Y-64234674D01*
X185198604Y-63952410D01*
X185139000Y-63652760D01*
X185139000Y-63347240D01*
X185150647Y-63288689D01*
X185198604Y-63047591D01*
X185246545Y-62931850D01*
X185315521Y-62765326D01*
X185485259Y-62511295D01*
X185701295Y-62295259D01*
X185955326Y-62125521D01*
X186237590Y-62008604D01*
X186337473Y-61988736D01*
X186537238Y-61949000D01*
X186842762Y-61949000D01*
X187042527Y-61988736D01*
X187042527Y-61988736D01*
G37*
G36*
X170394795Y-61150156D02*
X170501150Y-61171311D01*
X170571990Y-61200654D01*
X170701516Y-61254305D01*
X170881850Y-61374801D01*
X171035199Y-61528150D01*
X171155695Y-61708484D01*
X171238689Y-61908851D01*
X171281000Y-62121560D01*
X171281000Y-62338440D01*
X171238689Y-62551149D01*
X171155695Y-62751516D01*
X171035199Y-62931850D01*
X170881850Y-63085199D01*
X170701516Y-63205695D01*
X170571990Y-63259346D01*
X170501150Y-63288689D01*
X170394795Y-63309844D01*
X170288440Y-63331000D01*
X170071560Y-63331000D01*
X169965205Y-63309844D01*
X169858850Y-63288689D01*
X169788010Y-63259346D01*
X169658484Y-63205695D01*
X169478150Y-63085199D01*
X169324801Y-62931850D01*
X169204305Y-62751516D01*
X169121311Y-62551149D01*
X169079000Y-62338440D01*
X169079000Y-62121560D01*
X169121311Y-61908851D01*
X169204305Y-61708484D01*
X169324801Y-61528150D01*
X169478150Y-61374801D01*
X169658484Y-61254305D01*
X169788010Y-61200654D01*
X169858850Y-61171311D01*
X169965205Y-61150156D01*
X170071560Y-61129000D01*
X170288440Y-61129000D01*
X170394795Y-61150156D01*
X170394795Y-61150156D01*
G37*
G36*
X180554795Y-61150156D02*
X180661150Y-61171311D01*
X180731990Y-61200654D01*
X180861516Y-61254305D01*
X181041850Y-61374801D01*
X181195199Y-61528150D01*
X181315695Y-61708484D01*
X181398689Y-61908851D01*
X181441000Y-62121560D01*
X181441000Y-62338440D01*
X181398689Y-62551149D01*
X181315695Y-62751516D01*
X181195199Y-62931850D01*
X181041850Y-63085199D01*
X180861516Y-63205695D01*
X180731990Y-63259346D01*
X180661150Y-63288689D01*
X180554795Y-63309844D01*
X180448440Y-63331000D01*
X180231560Y-63331000D01*
X180125205Y-63309844D01*
X180018850Y-63288689D01*
X179948010Y-63259346D01*
X179818484Y-63205695D01*
X179638150Y-63085199D01*
X179484801Y-62931850D01*
X179364305Y-62751516D01*
X179281311Y-62551149D01*
X179239000Y-62338440D01*
X179239000Y-62121560D01*
X179281311Y-61908851D01*
X179364305Y-61708484D01*
X179484801Y-61528150D01*
X179638150Y-61374801D01*
X179818484Y-61254305D01*
X179948010Y-61200654D01*
X180018850Y-61171311D01*
X180125205Y-61150156D01*
X180231560Y-61129000D01*
X180448440Y-61129000D01*
X180554795Y-61150156D01*
X180554795Y-61150156D01*
G37*
G36*
X165314795Y-61150156D02*
X165421150Y-61171311D01*
X165491990Y-61200654D01*
X165621516Y-61254305D01*
X165801850Y-61374801D01*
X165955199Y-61528150D01*
X166075695Y-61708484D01*
X166158689Y-61908851D01*
X166201000Y-62121560D01*
X166201000Y-62338440D01*
X166158689Y-62551149D01*
X166075695Y-62751516D01*
X165955199Y-62931850D01*
X165801850Y-63085199D01*
X165621516Y-63205695D01*
X165491990Y-63259346D01*
X165421150Y-63288689D01*
X165314795Y-63309844D01*
X165208440Y-63331000D01*
X164991560Y-63331000D01*
X164885205Y-63309844D01*
X164778850Y-63288689D01*
X164708010Y-63259346D01*
X164578484Y-63205695D01*
X164398150Y-63085199D01*
X164244801Y-62931850D01*
X164124305Y-62751516D01*
X164041311Y-62551149D01*
X163999000Y-62338440D01*
X163999000Y-62121560D01*
X164041311Y-61908851D01*
X164124305Y-61708484D01*
X164244801Y-61528150D01*
X164398150Y-61374801D01*
X164578484Y-61254305D01*
X164708010Y-61200654D01*
X164778850Y-61171311D01*
X164885205Y-61150156D01*
X164991560Y-61129000D01*
X165208440Y-61129000D01*
X165314795Y-61150156D01*
X165314795Y-61150156D01*
G37*
G36*
X162774795Y-61150156D02*
X162881150Y-61171311D01*
X162951990Y-61200654D01*
X163081516Y-61254305D01*
X163261850Y-61374801D01*
X163415199Y-61528150D01*
X163535695Y-61708484D01*
X163618689Y-61908851D01*
X163661000Y-62121560D01*
X163661000Y-62338440D01*
X163618689Y-62551149D01*
X163535695Y-62751516D01*
X163415199Y-62931850D01*
X163261850Y-63085199D01*
X163081516Y-63205695D01*
X162951990Y-63259346D01*
X162881150Y-63288689D01*
X162774795Y-63309844D01*
X162668440Y-63331000D01*
X162451560Y-63331000D01*
X162345205Y-63309844D01*
X162238850Y-63288689D01*
X162168010Y-63259346D01*
X162038484Y-63205695D01*
X161858150Y-63085199D01*
X161704801Y-62931850D01*
X161584305Y-62751516D01*
X161501311Y-62551149D01*
X161459000Y-62338440D01*
X161459000Y-62121560D01*
X161501311Y-61908851D01*
X161584305Y-61708484D01*
X161704801Y-61528150D01*
X161858150Y-61374801D01*
X162038484Y-61254305D01*
X162168010Y-61200654D01*
X162238850Y-61171311D01*
X162345205Y-61150156D01*
X162451560Y-61129000D01*
X162668440Y-61129000D01*
X162774795Y-61150156D01*
X162774795Y-61150156D01*
G37*
G36*
X160234795Y-61150156D02*
X160341150Y-61171311D01*
X160411990Y-61200654D01*
X160541516Y-61254305D01*
X160721850Y-61374801D01*
X160875199Y-61528150D01*
X160995695Y-61708484D01*
X161078689Y-61908851D01*
X161121000Y-62121560D01*
X161121000Y-62338440D01*
X161078689Y-62551149D01*
X160995695Y-62751516D01*
X160875199Y-62931850D01*
X160721850Y-63085199D01*
X160541516Y-63205695D01*
X160411990Y-63259346D01*
X160341150Y-63288689D01*
X160234795Y-63309844D01*
X160128440Y-63331000D01*
X159911560Y-63331000D01*
X159805205Y-63309844D01*
X159698850Y-63288689D01*
X159628010Y-63259346D01*
X159498484Y-63205695D01*
X159318150Y-63085199D01*
X159164801Y-62931850D01*
X159044305Y-62751516D01*
X158961311Y-62551149D01*
X158919000Y-62338440D01*
X158919000Y-62121560D01*
X158961311Y-61908851D01*
X159044305Y-61708484D01*
X159164801Y-61528150D01*
X159318150Y-61374801D01*
X159498484Y-61254305D01*
X159628010Y-61200654D01*
X159698850Y-61171311D01*
X159805205Y-61150156D01*
X159911560Y-61129000D01*
X160128440Y-61129000D01*
X160234795Y-61150156D01*
X160234795Y-61150156D01*
G37*
G36*
X156041000Y-63331000D02*
X153839000Y-63331000D01*
X153839000Y-61129000D01*
X156041000Y-61129000D01*
X156041000Y-63331000D01*
X156041000Y-63331000D01*
G37*
G36*
X178014795Y-61150156D02*
X178121150Y-61171311D01*
X178191990Y-61200654D01*
X178321516Y-61254305D01*
X178501850Y-61374801D01*
X178655199Y-61528150D01*
X178775695Y-61708484D01*
X178858689Y-61908851D01*
X178901000Y-62121560D01*
X178901000Y-62338440D01*
X178858689Y-62551149D01*
X178775695Y-62751516D01*
X178655199Y-62931850D01*
X178501850Y-63085199D01*
X178321516Y-63205695D01*
X178191990Y-63259346D01*
X178121150Y-63288689D01*
X178014795Y-63309844D01*
X177908440Y-63331000D01*
X177691560Y-63331000D01*
X177585205Y-63309844D01*
X177478850Y-63288689D01*
X177408010Y-63259346D01*
X177278484Y-63205695D01*
X177098150Y-63085199D01*
X176944801Y-62931850D01*
X176824305Y-62751516D01*
X176741311Y-62551149D01*
X176699000Y-62338440D01*
X176699000Y-62121560D01*
X176741311Y-61908851D01*
X176824305Y-61708484D01*
X176944801Y-61528150D01*
X177098150Y-61374801D01*
X177278484Y-61254305D01*
X177408010Y-61200654D01*
X177478850Y-61171311D01*
X177585205Y-61150156D01*
X177691560Y-61129000D01*
X177908440Y-61129000D01*
X178014795Y-61150156D01*
X178014795Y-61150156D01*
G37*
G36*
X175474795Y-61150156D02*
X175581150Y-61171311D01*
X175651990Y-61200654D01*
X175781516Y-61254305D01*
X175961850Y-61374801D01*
X176115199Y-61528150D01*
X176235695Y-61708484D01*
X176318689Y-61908851D01*
X176361000Y-62121560D01*
X176361000Y-62338440D01*
X176318689Y-62551149D01*
X176235695Y-62751516D01*
X176115199Y-62931850D01*
X175961850Y-63085199D01*
X175781516Y-63205695D01*
X175651990Y-63259346D01*
X175581150Y-63288689D01*
X175474795Y-63309844D01*
X175368440Y-63331000D01*
X175151560Y-63331000D01*
X175045205Y-63309844D01*
X174938850Y-63288689D01*
X174868010Y-63259346D01*
X174738484Y-63205695D01*
X174558150Y-63085199D01*
X174404801Y-62931850D01*
X174284305Y-62751516D01*
X174201311Y-62551149D01*
X174159000Y-62338440D01*
X174159000Y-62121560D01*
X174201311Y-61908851D01*
X174284305Y-61708484D01*
X174404801Y-61528150D01*
X174558150Y-61374801D01*
X174738484Y-61254305D01*
X174868010Y-61200654D01*
X174938850Y-61171311D01*
X175045205Y-61150156D01*
X175151560Y-61129000D01*
X175368440Y-61129000D01*
X175474795Y-61150156D01*
X175474795Y-61150156D01*
G37*
G36*
X172934795Y-61150156D02*
X173041150Y-61171311D01*
X173111990Y-61200654D01*
X173241516Y-61254305D01*
X173421850Y-61374801D01*
X173575199Y-61528150D01*
X173695695Y-61708484D01*
X173778689Y-61908851D01*
X173821000Y-62121560D01*
X173821000Y-62338440D01*
X173778689Y-62551149D01*
X173695695Y-62751516D01*
X173575199Y-62931850D01*
X173421850Y-63085199D01*
X173241516Y-63205695D01*
X173111990Y-63259346D01*
X173041150Y-63288689D01*
X172934795Y-63309844D01*
X172828440Y-63331000D01*
X172611560Y-63331000D01*
X172505205Y-63309844D01*
X172398850Y-63288689D01*
X172328010Y-63259346D01*
X172198484Y-63205695D01*
X172018150Y-63085199D01*
X171864801Y-62931850D01*
X171744305Y-62751516D01*
X171661311Y-62551149D01*
X171619000Y-62338440D01*
X171619000Y-62121560D01*
X171661311Y-61908851D01*
X171744305Y-61708484D01*
X171864801Y-61528150D01*
X172018150Y-61374801D01*
X172198484Y-61254305D01*
X172328010Y-61200654D01*
X172398850Y-61171311D01*
X172505205Y-61150156D01*
X172611560Y-61129000D01*
X172828440Y-61129000D01*
X172934795Y-61150156D01*
X172934795Y-61150156D01*
G37*
G36*
X157694795Y-61150156D02*
X157801150Y-61171311D01*
X157871990Y-61200654D01*
X158001516Y-61254305D01*
X158181850Y-61374801D01*
X158335199Y-61528150D01*
X158455695Y-61708484D01*
X158538689Y-61908851D01*
X158581000Y-62121560D01*
X158581000Y-62338440D01*
X158538689Y-62551149D01*
X158455695Y-62751516D01*
X158335199Y-62931850D01*
X158181850Y-63085199D01*
X158001516Y-63205695D01*
X157871990Y-63259346D01*
X157801150Y-63288689D01*
X157694795Y-63309844D01*
X157588440Y-63331000D01*
X157371560Y-63331000D01*
X157265205Y-63309844D01*
X157158850Y-63288689D01*
X157088010Y-63259346D01*
X156958484Y-63205695D01*
X156778150Y-63085199D01*
X156624801Y-62931850D01*
X156504305Y-62751516D01*
X156421311Y-62551149D01*
X156379000Y-62338440D01*
X156379000Y-62121560D01*
X156421311Y-61908851D01*
X156504305Y-61708484D01*
X156624801Y-61528150D01*
X156778150Y-61374801D01*
X156958484Y-61254305D01*
X157088010Y-61200654D01*
X157158850Y-61171311D01*
X157265205Y-61150156D01*
X157371560Y-61129000D01*
X157588440Y-61129000D01*
X157694795Y-61150156D01*
X157694795Y-61150156D01*
G37*
G36*
X167854795Y-61150156D02*
X167961150Y-61171311D01*
X168031990Y-61200654D01*
X168161516Y-61254305D01*
X168341850Y-61374801D01*
X168495199Y-61528150D01*
X168615695Y-61708484D01*
X168698689Y-61908851D01*
X168741000Y-62121560D01*
X168741000Y-62338440D01*
X168698689Y-62551149D01*
X168615695Y-62751516D01*
X168495199Y-62931850D01*
X168341850Y-63085199D01*
X168161516Y-63205695D01*
X168031990Y-63259346D01*
X167961150Y-63288689D01*
X167854795Y-63309844D01*
X167748440Y-63331000D01*
X167531560Y-63331000D01*
X167425205Y-63309844D01*
X167318850Y-63288689D01*
X167248010Y-63259346D01*
X167118484Y-63205695D01*
X166938150Y-63085199D01*
X166784801Y-62931850D01*
X166664305Y-62751516D01*
X166581311Y-62551149D01*
X166539000Y-62338440D01*
X166539000Y-62121560D01*
X166581311Y-61908851D01*
X166664305Y-61708484D01*
X166784801Y-61528150D01*
X166938150Y-61374801D01*
X167118484Y-61254305D01*
X167248010Y-61200654D01*
X167318850Y-61171311D01*
X167425205Y-61150156D01*
X167531560Y-61129000D01*
X167748440Y-61129000D01*
X167854795Y-61150156D01*
X167854795Y-61150156D01*
G37*
M02*
