G04 #@! TF.GenerationSoftware,KiCad,Pcbnew,5.0.1+dfsg1-2*
G04 #@! TF.CreationDate,2019-04-19T13:27:36+02:00*
G04 #@! TF.ProjectId,oled-controller,6F6C65642D636F6E74726F6C6C65722E,rev?*
G04 #@! TF.SameCoordinates,Original*
G04 #@! TF.FileFunction,Legend,Bot*
G04 #@! TF.FilePolarity,Positive*
%FSLAX46Y46*%
G04 Gerber Fmt 4.6, Leading zero omitted, Abs format (unit mm)*
G04 Created by KiCad (PCBNEW 5.0.1+dfsg1-2) date Fr 19 Apr 2019 13:27:36 CEST*
%MOMM*%
%LPD*%
G01*
G04 APERTURE LIST*
%ADD10C,0.500000*%
%ADD11C,0.120000*%
%ADD12C,0.150000*%
%ADD13C,3.102000*%
%ADD14R,2.202000X2.202000*%
%ADD15C,2.202000*%
%ADD16C,0.100000*%
%ADD17C,1.052000*%
%ADD18R,2.102000X0.602000*%
%ADD19R,1.802000X2.102000*%
%ADD20C,1.102000*%
%ADD21R,3.102000X1.902000*%
%ADD22R,0.402000X2.402000*%
%ADD23R,2.502000X0.842000*%
%ADD24R,1.802000X1.802000*%
%ADD25O,1.802000X1.802000*%
G04 APERTURE END LIST*
D10*
X178308000Y-80899000D02*
G75*
G03X178308000Y-80899000I-254000J0D01*
G01*
X149225000Y-87249000D02*
G75*
G03X149225000Y-87249000I-254000J0D01*
G01*
X173228000Y-68453000D02*
G75*
G03X173228000Y-68453000I-254000J0D01*
G01*
D11*
G04 #@! TO.C,D2*
X153200000Y-97255000D02*
X150740000Y-97255000D01*
X150740000Y-97255000D02*
X150740000Y-95785000D01*
X150740000Y-95785000D02*
X153200000Y-95785000D01*
G04 #@! TO.C,R4*
X156433733Y-97030000D02*
X156776267Y-97030000D01*
X156433733Y-96010000D02*
X156776267Y-96010000D01*
G04 #@! TO.C,C4*
X167849733Y-68201000D02*
X168192267Y-68201000D01*
X167849733Y-67181000D02*
X168192267Y-67181000D01*
G04 #@! TO.C,D1*
X182080000Y-95785000D02*
X184540000Y-95785000D01*
X184540000Y-95785000D02*
X184540000Y-97255000D01*
X184540000Y-97255000D02*
X182080000Y-97255000D01*
G04 #@! TO.C,R3*
X179241267Y-96010000D02*
X178898733Y-96010000D01*
X179241267Y-97030000D02*
X178898733Y-97030000D01*
G04 #@! TO.C,J5*
X189171000Y-86460000D02*
X189171000Y-78640000D01*
X179851000Y-80440000D02*
X179421000Y-80440000D01*
X189171000Y-86460000D02*
X187221000Y-86460000D01*
X185001000Y-86460000D02*
X181771000Y-86460000D01*
X179851000Y-84660000D02*
X179851000Y-85740000D01*
X179851000Y-79360000D02*
X179851000Y-80440000D01*
X185001000Y-78640000D02*
X181771000Y-78640000D01*
X189171000Y-78640000D02*
X187221000Y-78640000D01*
D12*
G04 #@! TO.C,J1*
X175448000Y-77614000D02*
X175448000Y-71814000D01*
X160848000Y-77614000D02*
X175448000Y-77614000D01*
X160848000Y-71814000D02*
X160848000Y-77614000D01*
X175448000Y-71814000D02*
X160848000Y-71814000D01*
D11*
G04 #@! TO.C,R2*
X153841267Y-71245000D02*
X153498733Y-71245000D01*
X153841267Y-72265000D02*
X153498733Y-72265000D01*
G04 #@! TO.C,J4*
X149365000Y-86420000D02*
X152895000Y-86420000D01*
X149365000Y-79950000D02*
X152895000Y-79950000D01*
X148040000Y-86355000D02*
X149365000Y-86355000D01*
X149365000Y-86420000D02*
X149365000Y-86355000D01*
X152895000Y-86420000D02*
X152895000Y-86355000D01*
X149365000Y-80015000D02*
X149365000Y-79950000D01*
X152895000Y-80015000D02*
X152895000Y-79950000D01*
G04 #@! TO.C,R1*
X149396267Y-71245000D02*
X149053733Y-71245000D01*
X149396267Y-72265000D02*
X149053733Y-72265000D01*
G04 #@! TD*
%LPC*%
D13*
G04 #@! TO.C,J3*
X186690000Y-63500000D03*
X148590000Y-63500000D03*
X186690000Y-100330000D03*
X148590000Y-100330000D03*
D14*
X154940000Y-62230000D03*
D15*
X157480000Y-62230000D03*
X167640000Y-62230000D03*
X170180000Y-62230000D03*
X172720000Y-62230000D03*
X175260000Y-62230000D03*
X177800000Y-62230000D03*
X160020000Y-62230000D03*
X162560000Y-62230000D03*
X165100000Y-62230000D03*
X180340000Y-62230000D03*
G04 #@! TD*
D16*
G04 #@! TO.C,D2*
G36*
X151863779Y-95995266D02*
X151889309Y-95999053D01*
X151914345Y-96005325D01*
X151938646Y-96014020D01*
X151961977Y-96025055D01*
X151984115Y-96038323D01*
X152004845Y-96053698D01*
X152023969Y-96071031D01*
X152041302Y-96090155D01*
X152056677Y-96110885D01*
X152069945Y-96133023D01*
X152080980Y-96156354D01*
X152089675Y-96180655D01*
X152095947Y-96205691D01*
X152099734Y-96231221D01*
X152101000Y-96257000D01*
X152101000Y-96783000D01*
X152099734Y-96808779D01*
X152095947Y-96834309D01*
X152089675Y-96859345D01*
X152080980Y-96883646D01*
X152069945Y-96906977D01*
X152056677Y-96929115D01*
X152041302Y-96949845D01*
X152023969Y-96968969D01*
X152004845Y-96986302D01*
X151984115Y-97001677D01*
X151961977Y-97014945D01*
X151938646Y-97025980D01*
X151914345Y-97034675D01*
X151889309Y-97040947D01*
X151863779Y-97044734D01*
X151838000Y-97046000D01*
X151212000Y-97046000D01*
X151186221Y-97044734D01*
X151160691Y-97040947D01*
X151135655Y-97034675D01*
X151111354Y-97025980D01*
X151088023Y-97014945D01*
X151065885Y-97001677D01*
X151045155Y-96986302D01*
X151026031Y-96968969D01*
X151008698Y-96949845D01*
X150993323Y-96929115D01*
X150980055Y-96906977D01*
X150969020Y-96883646D01*
X150960325Y-96859345D01*
X150954053Y-96834309D01*
X150950266Y-96808779D01*
X150949000Y-96783000D01*
X150949000Y-96257000D01*
X150950266Y-96231221D01*
X150954053Y-96205691D01*
X150960325Y-96180655D01*
X150969020Y-96156354D01*
X150980055Y-96133023D01*
X150993323Y-96110885D01*
X151008698Y-96090155D01*
X151026031Y-96071031D01*
X151045155Y-96053698D01*
X151065885Y-96038323D01*
X151088023Y-96025055D01*
X151111354Y-96014020D01*
X151135655Y-96005325D01*
X151160691Y-95999053D01*
X151186221Y-95995266D01*
X151212000Y-95994000D01*
X151838000Y-95994000D01*
X151863779Y-95995266D01*
X151863779Y-95995266D01*
G37*
D17*
X151525000Y-96520000D03*
D16*
G36*
X153613779Y-95995266D02*
X153639309Y-95999053D01*
X153664345Y-96005325D01*
X153688646Y-96014020D01*
X153711977Y-96025055D01*
X153734115Y-96038323D01*
X153754845Y-96053698D01*
X153773969Y-96071031D01*
X153791302Y-96090155D01*
X153806677Y-96110885D01*
X153819945Y-96133023D01*
X153830980Y-96156354D01*
X153839675Y-96180655D01*
X153845947Y-96205691D01*
X153849734Y-96231221D01*
X153851000Y-96257000D01*
X153851000Y-96783000D01*
X153849734Y-96808779D01*
X153845947Y-96834309D01*
X153839675Y-96859345D01*
X153830980Y-96883646D01*
X153819945Y-96906977D01*
X153806677Y-96929115D01*
X153791302Y-96949845D01*
X153773969Y-96968969D01*
X153754845Y-96986302D01*
X153734115Y-97001677D01*
X153711977Y-97014945D01*
X153688646Y-97025980D01*
X153664345Y-97034675D01*
X153639309Y-97040947D01*
X153613779Y-97044734D01*
X153588000Y-97046000D01*
X152962000Y-97046000D01*
X152936221Y-97044734D01*
X152910691Y-97040947D01*
X152885655Y-97034675D01*
X152861354Y-97025980D01*
X152838023Y-97014945D01*
X152815885Y-97001677D01*
X152795155Y-96986302D01*
X152776031Y-96968969D01*
X152758698Y-96949845D01*
X152743323Y-96929115D01*
X152730055Y-96906977D01*
X152719020Y-96883646D01*
X152710325Y-96859345D01*
X152704053Y-96834309D01*
X152700266Y-96808779D01*
X152699000Y-96783000D01*
X152699000Y-96257000D01*
X152700266Y-96231221D01*
X152704053Y-96205691D01*
X152710325Y-96180655D01*
X152719020Y-96156354D01*
X152730055Y-96133023D01*
X152743323Y-96110885D01*
X152758698Y-96090155D01*
X152776031Y-96071031D01*
X152795155Y-96053698D01*
X152815885Y-96038323D01*
X152838023Y-96025055D01*
X152861354Y-96014020D01*
X152885655Y-96005325D01*
X152910691Y-95999053D01*
X152936221Y-95995266D01*
X152962000Y-95994000D01*
X153588000Y-95994000D01*
X153613779Y-95995266D01*
X153613779Y-95995266D01*
G37*
D17*
X153275000Y-96520000D03*
G04 #@! TD*
D16*
G04 #@! TO.C,R4*
G36*
X156068779Y-95995266D02*
X156094309Y-95999053D01*
X156119345Y-96005325D01*
X156143646Y-96014020D01*
X156166977Y-96025055D01*
X156189115Y-96038323D01*
X156209845Y-96053698D01*
X156228969Y-96071031D01*
X156246302Y-96090155D01*
X156261677Y-96110885D01*
X156274945Y-96133023D01*
X156285980Y-96156354D01*
X156294675Y-96180655D01*
X156300947Y-96205691D01*
X156304734Y-96231221D01*
X156306000Y-96257000D01*
X156306000Y-96783000D01*
X156304734Y-96808779D01*
X156300947Y-96834309D01*
X156294675Y-96859345D01*
X156285980Y-96883646D01*
X156274945Y-96906977D01*
X156261677Y-96929115D01*
X156246302Y-96949845D01*
X156228969Y-96968969D01*
X156209845Y-96986302D01*
X156189115Y-97001677D01*
X156166977Y-97014945D01*
X156143646Y-97025980D01*
X156119345Y-97034675D01*
X156094309Y-97040947D01*
X156068779Y-97044734D01*
X156043000Y-97046000D01*
X155417000Y-97046000D01*
X155391221Y-97044734D01*
X155365691Y-97040947D01*
X155340655Y-97034675D01*
X155316354Y-97025980D01*
X155293023Y-97014945D01*
X155270885Y-97001677D01*
X155250155Y-96986302D01*
X155231031Y-96968969D01*
X155213698Y-96949845D01*
X155198323Y-96929115D01*
X155185055Y-96906977D01*
X155174020Y-96883646D01*
X155165325Y-96859345D01*
X155159053Y-96834309D01*
X155155266Y-96808779D01*
X155154000Y-96783000D01*
X155154000Y-96257000D01*
X155155266Y-96231221D01*
X155159053Y-96205691D01*
X155165325Y-96180655D01*
X155174020Y-96156354D01*
X155185055Y-96133023D01*
X155198323Y-96110885D01*
X155213698Y-96090155D01*
X155231031Y-96071031D01*
X155250155Y-96053698D01*
X155270885Y-96038323D01*
X155293023Y-96025055D01*
X155316354Y-96014020D01*
X155340655Y-96005325D01*
X155365691Y-95999053D01*
X155391221Y-95995266D01*
X155417000Y-95994000D01*
X156043000Y-95994000D01*
X156068779Y-95995266D01*
X156068779Y-95995266D01*
G37*
D17*
X155730000Y-96520000D03*
D16*
G36*
X157818779Y-95995266D02*
X157844309Y-95999053D01*
X157869345Y-96005325D01*
X157893646Y-96014020D01*
X157916977Y-96025055D01*
X157939115Y-96038323D01*
X157959845Y-96053698D01*
X157978969Y-96071031D01*
X157996302Y-96090155D01*
X158011677Y-96110885D01*
X158024945Y-96133023D01*
X158035980Y-96156354D01*
X158044675Y-96180655D01*
X158050947Y-96205691D01*
X158054734Y-96231221D01*
X158056000Y-96257000D01*
X158056000Y-96783000D01*
X158054734Y-96808779D01*
X158050947Y-96834309D01*
X158044675Y-96859345D01*
X158035980Y-96883646D01*
X158024945Y-96906977D01*
X158011677Y-96929115D01*
X157996302Y-96949845D01*
X157978969Y-96968969D01*
X157959845Y-96986302D01*
X157939115Y-97001677D01*
X157916977Y-97014945D01*
X157893646Y-97025980D01*
X157869345Y-97034675D01*
X157844309Y-97040947D01*
X157818779Y-97044734D01*
X157793000Y-97046000D01*
X157167000Y-97046000D01*
X157141221Y-97044734D01*
X157115691Y-97040947D01*
X157090655Y-97034675D01*
X157066354Y-97025980D01*
X157043023Y-97014945D01*
X157020885Y-97001677D01*
X157000155Y-96986302D01*
X156981031Y-96968969D01*
X156963698Y-96949845D01*
X156948323Y-96929115D01*
X156935055Y-96906977D01*
X156924020Y-96883646D01*
X156915325Y-96859345D01*
X156909053Y-96834309D01*
X156905266Y-96808779D01*
X156904000Y-96783000D01*
X156904000Y-96257000D01*
X156905266Y-96231221D01*
X156909053Y-96205691D01*
X156915325Y-96180655D01*
X156924020Y-96156354D01*
X156935055Y-96133023D01*
X156948323Y-96110885D01*
X156963698Y-96090155D01*
X156981031Y-96071031D01*
X157000155Y-96053698D01*
X157020885Y-96038323D01*
X157043023Y-96025055D01*
X157066354Y-96014020D01*
X157090655Y-96005325D01*
X157115691Y-95999053D01*
X157141221Y-95995266D01*
X157167000Y-95994000D01*
X157793000Y-95994000D01*
X157818779Y-95995266D01*
X157818779Y-95995266D01*
G37*
D17*
X157480000Y-96520000D03*
G04 #@! TD*
D16*
G04 #@! TO.C,C4*
G36*
X167484779Y-67166266D02*
X167510309Y-67170053D01*
X167535345Y-67176325D01*
X167559646Y-67185020D01*
X167582977Y-67196055D01*
X167605115Y-67209323D01*
X167625845Y-67224698D01*
X167644969Y-67242031D01*
X167662302Y-67261155D01*
X167677677Y-67281885D01*
X167690945Y-67304023D01*
X167701980Y-67327354D01*
X167710675Y-67351655D01*
X167716947Y-67376691D01*
X167720734Y-67402221D01*
X167722000Y-67428000D01*
X167722000Y-67954000D01*
X167720734Y-67979779D01*
X167716947Y-68005309D01*
X167710675Y-68030345D01*
X167701980Y-68054646D01*
X167690945Y-68077977D01*
X167677677Y-68100115D01*
X167662302Y-68120845D01*
X167644969Y-68139969D01*
X167625845Y-68157302D01*
X167605115Y-68172677D01*
X167582977Y-68185945D01*
X167559646Y-68196980D01*
X167535345Y-68205675D01*
X167510309Y-68211947D01*
X167484779Y-68215734D01*
X167459000Y-68217000D01*
X166833000Y-68217000D01*
X166807221Y-68215734D01*
X166781691Y-68211947D01*
X166756655Y-68205675D01*
X166732354Y-68196980D01*
X166709023Y-68185945D01*
X166686885Y-68172677D01*
X166666155Y-68157302D01*
X166647031Y-68139969D01*
X166629698Y-68120845D01*
X166614323Y-68100115D01*
X166601055Y-68077977D01*
X166590020Y-68054646D01*
X166581325Y-68030345D01*
X166575053Y-68005309D01*
X166571266Y-67979779D01*
X166570000Y-67954000D01*
X166570000Y-67428000D01*
X166571266Y-67402221D01*
X166575053Y-67376691D01*
X166581325Y-67351655D01*
X166590020Y-67327354D01*
X166601055Y-67304023D01*
X166614323Y-67281885D01*
X166629698Y-67261155D01*
X166647031Y-67242031D01*
X166666155Y-67224698D01*
X166686885Y-67209323D01*
X166709023Y-67196055D01*
X166732354Y-67185020D01*
X166756655Y-67176325D01*
X166781691Y-67170053D01*
X166807221Y-67166266D01*
X166833000Y-67165000D01*
X167459000Y-67165000D01*
X167484779Y-67166266D01*
X167484779Y-67166266D01*
G37*
D17*
X167146000Y-67691000D03*
D16*
G36*
X169234779Y-67166266D02*
X169260309Y-67170053D01*
X169285345Y-67176325D01*
X169309646Y-67185020D01*
X169332977Y-67196055D01*
X169355115Y-67209323D01*
X169375845Y-67224698D01*
X169394969Y-67242031D01*
X169412302Y-67261155D01*
X169427677Y-67281885D01*
X169440945Y-67304023D01*
X169451980Y-67327354D01*
X169460675Y-67351655D01*
X169466947Y-67376691D01*
X169470734Y-67402221D01*
X169472000Y-67428000D01*
X169472000Y-67954000D01*
X169470734Y-67979779D01*
X169466947Y-68005309D01*
X169460675Y-68030345D01*
X169451980Y-68054646D01*
X169440945Y-68077977D01*
X169427677Y-68100115D01*
X169412302Y-68120845D01*
X169394969Y-68139969D01*
X169375845Y-68157302D01*
X169355115Y-68172677D01*
X169332977Y-68185945D01*
X169309646Y-68196980D01*
X169285345Y-68205675D01*
X169260309Y-68211947D01*
X169234779Y-68215734D01*
X169209000Y-68217000D01*
X168583000Y-68217000D01*
X168557221Y-68215734D01*
X168531691Y-68211947D01*
X168506655Y-68205675D01*
X168482354Y-68196980D01*
X168459023Y-68185945D01*
X168436885Y-68172677D01*
X168416155Y-68157302D01*
X168397031Y-68139969D01*
X168379698Y-68120845D01*
X168364323Y-68100115D01*
X168351055Y-68077977D01*
X168340020Y-68054646D01*
X168331325Y-68030345D01*
X168325053Y-68005309D01*
X168321266Y-67979779D01*
X168320000Y-67954000D01*
X168320000Y-67428000D01*
X168321266Y-67402221D01*
X168325053Y-67376691D01*
X168331325Y-67351655D01*
X168340020Y-67327354D01*
X168351055Y-67304023D01*
X168364323Y-67281885D01*
X168379698Y-67261155D01*
X168397031Y-67242031D01*
X168416155Y-67224698D01*
X168436885Y-67209323D01*
X168459023Y-67196055D01*
X168482354Y-67185020D01*
X168506655Y-67176325D01*
X168531691Y-67170053D01*
X168557221Y-67166266D01*
X168583000Y-67165000D01*
X169209000Y-67165000D01*
X169234779Y-67166266D01*
X169234779Y-67166266D01*
G37*
D17*
X168896000Y-67691000D03*
G04 #@! TD*
D16*
G04 #@! TO.C,D1*
G36*
X184093779Y-95995266D02*
X184119309Y-95999053D01*
X184144345Y-96005325D01*
X184168646Y-96014020D01*
X184191977Y-96025055D01*
X184214115Y-96038323D01*
X184234845Y-96053698D01*
X184253969Y-96071031D01*
X184271302Y-96090155D01*
X184286677Y-96110885D01*
X184299945Y-96133023D01*
X184310980Y-96156354D01*
X184319675Y-96180655D01*
X184325947Y-96205691D01*
X184329734Y-96231221D01*
X184331000Y-96257000D01*
X184331000Y-96783000D01*
X184329734Y-96808779D01*
X184325947Y-96834309D01*
X184319675Y-96859345D01*
X184310980Y-96883646D01*
X184299945Y-96906977D01*
X184286677Y-96929115D01*
X184271302Y-96949845D01*
X184253969Y-96968969D01*
X184234845Y-96986302D01*
X184214115Y-97001677D01*
X184191977Y-97014945D01*
X184168646Y-97025980D01*
X184144345Y-97034675D01*
X184119309Y-97040947D01*
X184093779Y-97044734D01*
X184068000Y-97046000D01*
X183442000Y-97046000D01*
X183416221Y-97044734D01*
X183390691Y-97040947D01*
X183365655Y-97034675D01*
X183341354Y-97025980D01*
X183318023Y-97014945D01*
X183295885Y-97001677D01*
X183275155Y-96986302D01*
X183256031Y-96968969D01*
X183238698Y-96949845D01*
X183223323Y-96929115D01*
X183210055Y-96906977D01*
X183199020Y-96883646D01*
X183190325Y-96859345D01*
X183184053Y-96834309D01*
X183180266Y-96808779D01*
X183179000Y-96783000D01*
X183179000Y-96257000D01*
X183180266Y-96231221D01*
X183184053Y-96205691D01*
X183190325Y-96180655D01*
X183199020Y-96156354D01*
X183210055Y-96133023D01*
X183223323Y-96110885D01*
X183238698Y-96090155D01*
X183256031Y-96071031D01*
X183275155Y-96053698D01*
X183295885Y-96038323D01*
X183318023Y-96025055D01*
X183341354Y-96014020D01*
X183365655Y-96005325D01*
X183390691Y-95999053D01*
X183416221Y-95995266D01*
X183442000Y-95994000D01*
X184068000Y-95994000D01*
X184093779Y-95995266D01*
X184093779Y-95995266D01*
G37*
D17*
X183755000Y-96520000D03*
D16*
G36*
X182343779Y-95995266D02*
X182369309Y-95999053D01*
X182394345Y-96005325D01*
X182418646Y-96014020D01*
X182441977Y-96025055D01*
X182464115Y-96038323D01*
X182484845Y-96053698D01*
X182503969Y-96071031D01*
X182521302Y-96090155D01*
X182536677Y-96110885D01*
X182549945Y-96133023D01*
X182560980Y-96156354D01*
X182569675Y-96180655D01*
X182575947Y-96205691D01*
X182579734Y-96231221D01*
X182581000Y-96257000D01*
X182581000Y-96783000D01*
X182579734Y-96808779D01*
X182575947Y-96834309D01*
X182569675Y-96859345D01*
X182560980Y-96883646D01*
X182549945Y-96906977D01*
X182536677Y-96929115D01*
X182521302Y-96949845D01*
X182503969Y-96968969D01*
X182484845Y-96986302D01*
X182464115Y-97001677D01*
X182441977Y-97014945D01*
X182418646Y-97025980D01*
X182394345Y-97034675D01*
X182369309Y-97040947D01*
X182343779Y-97044734D01*
X182318000Y-97046000D01*
X181692000Y-97046000D01*
X181666221Y-97044734D01*
X181640691Y-97040947D01*
X181615655Y-97034675D01*
X181591354Y-97025980D01*
X181568023Y-97014945D01*
X181545885Y-97001677D01*
X181525155Y-96986302D01*
X181506031Y-96968969D01*
X181488698Y-96949845D01*
X181473323Y-96929115D01*
X181460055Y-96906977D01*
X181449020Y-96883646D01*
X181440325Y-96859345D01*
X181434053Y-96834309D01*
X181430266Y-96808779D01*
X181429000Y-96783000D01*
X181429000Y-96257000D01*
X181430266Y-96231221D01*
X181434053Y-96205691D01*
X181440325Y-96180655D01*
X181449020Y-96156354D01*
X181460055Y-96133023D01*
X181473323Y-96110885D01*
X181488698Y-96090155D01*
X181506031Y-96071031D01*
X181525155Y-96053698D01*
X181545885Y-96038323D01*
X181568023Y-96025055D01*
X181591354Y-96014020D01*
X181615655Y-96005325D01*
X181640691Y-95999053D01*
X181666221Y-95995266D01*
X181692000Y-95994000D01*
X182318000Y-95994000D01*
X182343779Y-95995266D01*
X182343779Y-95995266D01*
G37*
D17*
X182005000Y-96520000D03*
G04 #@! TD*
D16*
G04 #@! TO.C,R3*
G36*
X180283779Y-95995266D02*
X180309309Y-95999053D01*
X180334345Y-96005325D01*
X180358646Y-96014020D01*
X180381977Y-96025055D01*
X180404115Y-96038323D01*
X180424845Y-96053698D01*
X180443969Y-96071031D01*
X180461302Y-96090155D01*
X180476677Y-96110885D01*
X180489945Y-96133023D01*
X180500980Y-96156354D01*
X180509675Y-96180655D01*
X180515947Y-96205691D01*
X180519734Y-96231221D01*
X180521000Y-96257000D01*
X180521000Y-96783000D01*
X180519734Y-96808779D01*
X180515947Y-96834309D01*
X180509675Y-96859345D01*
X180500980Y-96883646D01*
X180489945Y-96906977D01*
X180476677Y-96929115D01*
X180461302Y-96949845D01*
X180443969Y-96968969D01*
X180424845Y-96986302D01*
X180404115Y-97001677D01*
X180381977Y-97014945D01*
X180358646Y-97025980D01*
X180334345Y-97034675D01*
X180309309Y-97040947D01*
X180283779Y-97044734D01*
X180258000Y-97046000D01*
X179632000Y-97046000D01*
X179606221Y-97044734D01*
X179580691Y-97040947D01*
X179555655Y-97034675D01*
X179531354Y-97025980D01*
X179508023Y-97014945D01*
X179485885Y-97001677D01*
X179465155Y-96986302D01*
X179446031Y-96968969D01*
X179428698Y-96949845D01*
X179413323Y-96929115D01*
X179400055Y-96906977D01*
X179389020Y-96883646D01*
X179380325Y-96859345D01*
X179374053Y-96834309D01*
X179370266Y-96808779D01*
X179369000Y-96783000D01*
X179369000Y-96257000D01*
X179370266Y-96231221D01*
X179374053Y-96205691D01*
X179380325Y-96180655D01*
X179389020Y-96156354D01*
X179400055Y-96133023D01*
X179413323Y-96110885D01*
X179428698Y-96090155D01*
X179446031Y-96071031D01*
X179465155Y-96053698D01*
X179485885Y-96038323D01*
X179508023Y-96025055D01*
X179531354Y-96014020D01*
X179555655Y-96005325D01*
X179580691Y-95999053D01*
X179606221Y-95995266D01*
X179632000Y-95994000D01*
X180258000Y-95994000D01*
X180283779Y-95995266D01*
X180283779Y-95995266D01*
G37*
D17*
X179945000Y-96520000D03*
D16*
G36*
X178533779Y-95995266D02*
X178559309Y-95999053D01*
X178584345Y-96005325D01*
X178608646Y-96014020D01*
X178631977Y-96025055D01*
X178654115Y-96038323D01*
X178674845Y-96053698D01*
X178693969Y-96071031D01*
X178711302Y-96090155D01*
X178726677Y-96110885D01*
X178739945Y-96133023D01*
X178750980Y-96156354D01*
X178759675Y-96180655D01*
X178765947Y-96205691D01*
X178769734Y-96231221D01*
X178771000Y-96257000D01*
X178771000Y-96783000D01*
X178769734Y-96808779D01*
X178765947Y-96834309D01*
X178759675Y-96859345D01*
X178750980Y-96883646D01*
X178739945Y-96906977D01*
X178726677Y-96929115D01*
X178711302Y-96949845D01*
X178693969Y-96968969D01*
X178674845Y-96986302D01*
X178654115Y-97001677D01*
X178631977Y-97014945D01*
X178608646Y-97025980D01*
X178584345Y-97034675D01*
X178559309Y-97040947D01*
X178533779Y-97044734D01*
X178508000Y-97046000D01*
X177882000Y-97046000D01*
X177856221Y-97044734D01*
X177830691Y-97040947D01*
X177805655Y-97034675D01*
X177781354Y-97025980D01*
X177758023Y-97014945D01*
X177735885Y-97001677D01*
X177715155Y-96986302D01*
X177696031Y-96968969D01*
X177678698Y-96949845D01*
X177663323Y-96929115D01*
X177650055Y-96906977D01*
X177639020Y-96883646D01*
X177630325Y-96859345D01*
X177624053Y-96834309D01*
X177620266Y-96808779D01*
X177619000Y-96783000D01*
X177619000Y-96257000D01*
X177620266Y-96231221D01*
X177624053Y-96205691D01*
X177630325Y-96180655D01*
X177639020Y-96156354D01*
X177650055Y-96133023D01*
X177663323Y-96110885D01*
X177678698Y-96090155D01*
X177696031Y-96071031D01*
X177715155Y-96053698D01*
X177735885Y-96038323D01*
X177758023Y-96025055D01*
X177781354Y-96014020D01*
X177805655Y-96005325D01*
X177830691Y-95999053D01*
X177856221Y-95995266D01*
X177882000Y-95994000D01*
X178508000Y-95994000D01*
X178533779Y-95995266D01*
X178533779Y-95995266D01*
G37*
D17*
X178195000Y-96520000D03*
G04 #@! TD*
D18*
G04 #@! TO.C,J5*
X180561000Y-80950000D03*
X180561000Y-81750000D03*
X180561000Y-82550000D03*
X180561000Y-83350000D03*
X180561000Y-84150000D03*
D19*
X180661000Y-78100000D03*
X186111000Y-78100000D03*
X180661000Y-87000000D03*
X186111000Y-87000000D03*
D20*
X183261000Y-80350000D03*
X183261000Y-84750000D03*
G04 #@! TD*
D21*
G04 #@! TO.C,J1*
X161098000Y-73914000D03*
D22*
X163398000Y-70664000D03*
X163898000Y-70664000D03*
X164398000Y-70664000D03*
X164898000Y-70664000D03*
X165398000Y-70664000D03*
X165898000Y-70664000D03*
X166398000Y-70664000D03*
X166898000Y-70664000D03*
X167398000Y-70664000D03*
X167898000Y-70664000D03*
X168398000Y-70664000D03*
X168898000Y-70664000D03*
X169398000Y-70664000D03*
X169898000Y-70664000D03*
X170398000Y-70664000D03*
X170898000Y-70664000D03*
X171398000Y-70664000D03*
X171898000Y-70664000D03*
X172398000Y-70664000D03*
X172898000Y-70664000D03*
D21*
X175198000Y-73914000D03*
G04 #@! TD*
D16*
G04 #@! TO.C,R2*
G36*
X154883779Y-71230266D02*
X154909309Y-71234053D01*
X154934345Y-71240325D01*
X154958646Y-71249020D01*
X154981977Y-71260055D01*
X155004115Y-71273323D01*
X155024845Y-71288698D01*
X155043969Y-71306031D01*
X155061302Y-71325155D01*
X155076677Y-71345885D01*
X155089945Y-71368023D01*
X155100980Y-71391354D01*
X155109675Y-71415655D01*
X155115947Y-71440691D01*
X155119734Y-71466221D01*
X155121000Y-71492000D01*
X155121000Y-72018000D01*
X155119734Y-72043779D01*
X155115947Y-72069309D01*
X155109675Y-72094345D01*
X155100980Y-72118646D01*
X155089945Y-72141977D01*
X155076677Y-72164115D01*
X155061302Y-72184845D01*
X155043969Y-72203969D01*
X155024845Y-72221302D01*
X155004115Y-72236677D01*
X154981977Y-72249945D01*
X154958646Y-72260980D01*
X154934345Y-72269675D01*
X154909309Y-72275947D01*
X154883779Y-72279734D01*
X154858000Y-72281000D01*
X154232000Y-72281000D01*
X154206221Y-72279734D01*
X154180691Y-72275947D01*
X154155655Y-72269675D01*
X154131354Y-72260980D01*
X154108023Y-72249945D01*
X154085885Y-72236677D01*
X154065155Y-72221302D01*
X154046031Y-72203969D01*
X154028698Y-72184845D01*
X154013323Y-72164115D01*
X154000055Y-72141977D01*
X153989020Y-72118646D01*
X153980325Y-72094345D01*
X153974053Y-72069309D01*
X153970266Y-72043779D01*
X153969000Y-72018000D01*
X153969000Y-71492000D01*
X153970266Y-71466221D01*
X153974053Y-71440691D01*
X153980325Y-71415655D01*
X153989020Y-71391354D01*
X154000055Y-71368023D01*
X154013323Y-71345885D01*
X154028698Y-71325155D01*
X154046031Y-71306031D01*
X154065155Y-71288698D01*
X154085885Y-71273323D01*
X154108023Y-71260055D01*
X154131354Y-71249020D01*
X154155655Y-71240325D01*
X154180691Y-71234053D01*
X154206221Y-71230266D01*
X154232000Y-71229000D01*
X154858000Y-71229000D01*
X154883779Y-71230266D01*
X154883779Y-71230266D01*
G37*
D17*
X154545000Y-71755000D03*
D16*
G36*
X153133779Y-71230266D02*
X153159309Y-71234053D01*
X153184345Y-71240325D01*
X153208646Y-71249020D01*
X153231977Y-71260055D01*
X153254115Y-71273323D01*
X153274845Y-71288698D01*
X153293969Y-71306031D01*
X153311302Y-71325155D01*
X153326677Y-71345885D01*
X153339945Y-71368023D01*
X153350980Y-71391354D01*
X153359675Y-71415655D01*
X153365947Y-71440691D01*
X153369734Y-71466221D01*
X153371000Y-71492000D01*
X153371000Y-72018000D01*
X153369734Y-72043779D01*
X153365947Y-72069309D01*
X153359675Y-72094345D01*
X153350980Y-72118646D01*
X153339945Y-72141977D01*
X153326677Y-72164115D01*
X153311302Y-72184845D01*
X153293969Y-72203969D01*
X153274845Y-72221302D01*
X153254115Y-72236677D01*
X153231977Y-72249945D01*
X153208646Y-72260980D01*
X153184345Y-72269675D01*
X153159309Y-72275947D01*
X153133779Y-72279734D01*
X153108000Y-72281000D01*
X152482000Y-72281000D01*
X152456221Y-72279734D01*
X152430691Y-72275947D01*
X152405655Y-72269675D01*
X152381354Y-72260980D01*
X152358023Y-72249945D01*
X152335885Y-72236677D01*
X152315155Y-72221302D01*
X152296031Y-72203969D01*
X152278698Y-72184845D01*
X152263323Y-72164115D01*
X152250055Y-72141977D01*
X152239020Y-72118646D01*
X152230325Y-72094345D01*
X152224053Y-72069309D01*
X152220266Y-72043779D01*
X152219000Y-72018000D01*
X152219000Y-71492000D01*
X152220266Y-71466221D01*
X152224053Y-71440691D01*
X152230325Y-71415655D01*
X152239020Y-71391354D01*
X152250055Y-71368023D01*
X152263323Y-71345885D01*
X152278698Y-71325155D01*
X152296031Y-71306031D01*
X152315155Y-71288698D01*
X152335885Y-71273323D01*
X152358023Y-71260055D01*
X152381354Y-71249020D01*
X152405655Y-71240325D01*
X152430691Y-71234053D01*
X152456221Y-71230266D01*
X152482000Y-71229000D01*
X153108000Y-71229000D01*
X153133779Y-71230266D01*
X153133779Y-71230266D01*
G37*
D17*
X152795000Y-71755000D03*
G04 #@! TD*
D23*
G04 #@! TO.C,J4*
X149180000Y-85725000D03*
X153080000Y-85725000D03*
X149180000Y-84455000D03*
X153080000Y-84455000D03*
X149180000Y-83185000D03*
X153080000Y-83185000D03*
X149180000Y-81915000D03*
X153080000Y-81915000D03*
X149180000Y-80645000D03*
X153080000Y-80645000D03*
G04 #@! TD*
D24*
G04 #@! TO.C,J2*
X173990000Y-101600000D03*
D25*
X171450000Y-101600000D03*
X168910000Y-101600000D03*
X166370000Y-101600000D03*
X163830000Y-101600000D03*
X161290000Y-101600000D03*
G04 #@! TD*
D16*
G04 #@! TO.C,R1*
G36*
X150438779Y-71230266D02*
X150464309Y-71234053D01*
X150489345Y-71240325D01*
X150513646Y-71249020D01*
X150536977Y-71260055D01*
X150559115Y-71273323D01*
X150579845Y-71288698D01*
X150598969Y-71306031D01*
X150616302Y-71325155D01*
X150631677Y-71345885D01*
X150644945Y-71368023D01*
X150655980Y-71391354D01*
X150664675Y-71415655D01*
X150670947Y-71440691D01*
X150674734Y-71466221D01*
X150676000Y-71492000D01*
X150676000Y-72018000D01*
X150674734Y-72043779D01*
X150670947Y-72069309D01*
X150664675Y-72094345D01*
X150655980Y-72118646D01*
X150644945Y-72141977D01*
X150631677Y-72164115D01*
X150616302Y-72184845D01*
X150598969Y-72203969D01*
X150579845Y-72221302D01*
X150559115Y-72236677D01*
X150536977Y-72249945D01*
X150513646Y-72260980D01*
X150489345Y-72269675D01*
X150464309Y-72275947D01*
X150438779Y-72279734D01*
X150413000Y-72281000D01*
X149787000Y-72281000D01*
X149761221Y-72279734D01*
X149735691Y-72275947D01*
X149710655Y-72269675D01*
X149686354Y-72260980D01*
X149663023Y-72249945D01*
X149640885Y-72236677D01*
X149620155Y-72221302D01*
X149601031Y-72203969D01*
X149583698Y-72184845D01*
X149568323Y-72164115D01*
X149555055Y-72141977D01*
X149544020Y-72118646D01*
X149535325Y-72094345D01*
X149529053Y-72069309D01*
X149525266Y-72043779D01*
X149524000Y-72018000D01*
X149524000Y-71492000D01*
X149525266Y-71466221D01*
X149529053Y-71440691D01*
X149535325Y-71415655D01*
X149544020Y-71391354D01*
X149555055Y-71368023D01*
X149568323Y-71345885D01*
X149583698Y-71325155D01*
X149601031Y-71306031D01*
X149620155Y-71288698D01*
X149640885Y-71273323D01*
X149663023Y-71260055D01*
X149686354Y-71249020D01*
X149710655Y-71240325D01*
X149735691Y-71234053D01*
X149761221Y-71230266D01*
X149787000Y-71229000D01*
X150413000Y-71229000D01*
X150438779Y-71230266D01*
X150438779Y-71230266D01*
G37*
D17*
X150100000Y-71755000D03*
D16*
G36*
X148688779Y-71230266D02*
X148714309Y-71234053D01*
X148739345Y-71240325D01*
X148763646Y-71249020D01*
X148786977Y-71260055D01*
X148809115Y-71273323D01*
X148829845Y-71288698D01*
X148848969Y-71306031D01*
X148866302Y-71325155D01*
X148881677Y-71345885D01*
X148894945Y-71368023D01*
X148905980Y-71391354D01*
X148914675Y-71415655D01*
X148920947Y-71440691D01*
X148924734Y-71466221D01*
X148926000Y-71492000D01*
X148926000Y-72018000D01*
X148924734Y-72043779D01*
X148920947Y-72069309D01*
X148914675Y-72094345D01*
X148905980Y-72118646D01*
X148894945Y-72141977D01*
X148881677Y-72164115D01*
X148866302Y-72184845D01*
X148848969Y-72203969D01*
X148829845Y-72221302D01*
X148809115Y-72236677D01*
X148786977Y-72249945D01*
X148763646Y-72260980D01*
X148739345Y-72269675D01*
X148714309Y-72275947D01*
X148688779Y-72279734D01*
X148663000Y-72281000D01*
X148037000Y-72281000D01*
X148011221Y-72279734D01*
X147985691Y-72275947D01*
X147960655Y-72269675D01*
X147936354Y-72260980D01*
X147913023Y-72249945D01*
X147890885Y-72236677D01*
X147870155Y-72221302D01*
X147851031Y-72203969D01*
X147833698Y-72184845D01*
X147818323Y-72164115D01*
X147805055Y-72141977D01*
X147794020Y-72118646D01*
X147785325Y-72094345D01*
X147779053Y-72069309D01*
X147775266Y-72043779D01*
X147774000Y-72018000D01*
X147774000Y-71492000D01*
X147775266Y-71466221D01*
X147779053Y-71440691D01*
X147785325Y-71415655D01*
X147794020Y-71391354D01*
X147805055Y-71368023D01*
X147818323Y-71345885D01*
X147833698Y-71325155D01*
X147851031Y-71306031D01*
X147870155Y-71288698D01*
X147890885Y-71273323D01*
X147913023Y-71260055D01*
X147936354Y-71249020D01*
X147960655Y-71240325D01*
X147985691Y-71234053D01*
X148011221Y-71230266D01*
X148037000Y-71229000D01*
X148663000Y-71229000D01*
X148688779Y-71230266D01*
X148688779Y-71230266D01*
G37*
D17*
X148350000Y-71755000D03*
G04 #@! TD*
M02*
