G04 #@! TF.GenerationSoftware,KiCad,Pcbnew,5.0.1+dfsg1-2*
G04 #@! TF.CreationDate,2019-04-19T13:27:36+02:00*
G04 #@! TF.ProjectId,oled-controller,6F6C65642D636F6E74726F6C6C65722E,rev?*
G04 #@! TF.SameCoordinates,Original*
G04 #@! TF.FileFunction,Legend,Top*
G04 #@! TF.FilePolarity,Positive*
%FSLAX46Y46*%
G04 Gerber Fmt 4.6, Leading zero omitted, Abs format (unit mm)*
G04 Created by KiCad (PCBNEW 5.0.1+dfsg1-2) date Fr 19 Apr 2019 13:27:36 CEST*
%MOMM*%
%LPD*%
G01*
G04 APERTURE LIST*
%ADD10C,0.500000*%
%ADD11C,0.120000*%
%ADD12C,0.150000*%
%ADD13C,3.102000*%
%ADD14R,2.202000X2.202000*%
%ADD15C,2.202000*%
%ADD16C,1.102000*%
%ADD17C,0.100000*%
%ADD18C,1.052000*%
%ADD19R,1.802000X1.802000*%
%ADD20O,1.802000X1.802000*%
%ADD21R,0.352000X1.102000*%
%ADD22R,1.102000X0.352000*%
G04 APERTURE END LIST*
D10*
X172212000Y-74676000D02*
G75*
G03X172212000Y-74676000I-254000J0D01*
G01*
D11*
G04 #@! TO.C,C1*
X160145000Y-84626267D02*
X160145000Y-84283733D01*
X161165000Y-84626267D02*
X161165000Y-84283733D01*
G04 #@! TO.C,C3*
X176405000Y-77298733D02*
X176405000Y-77641267D01*
X175385000Y-77298733D02*
X175385000Y-77641267D01*
G04 #@! TO.C,C2*
X171621267Y-89025000D02*
X171278733Y-89025000D01*
X171621267Y-90045000D02*
X171278733Y-90045000D01*
G04 #@! TO.C,J2*
X159960000Y-100270000D02*
X159960000Y-102930000D01*
X172720000Y-100270000D02*
X159960000Y-100270000D01*
X172720000Y-102930000D02*
X159960000Y-102930000D01*
X172720000Y-100270000D02*
X172720000Y-102930000D01*
X173990000Y-100270000D02*
X175320000Y-100270000D01*
X175320000Y-100270000D02*
X175320000Y-101600000D01*
D12*
G04 #@! TO.C,U1*
X173450000Y-76740000D02*
X172450000Y-76740000D01*
X173450000Y-87090000D02*
X172375000Y-87090000D01*
X163100000Y-87090000D02*
X164175000Y-87090000D01*
X163100000Y-76740000D02*
X164175000Y-76740000D01*
X173450000Y-76740000D02*
X173450000Y-77815000D01*
X163100000Y-76740000D02*
X163100000Y-77815000D01*
X163100000Y-87090000D02*
X163100000Y-86015000D01*
X173450000Y-87090000D02*
X173450000Y-86015000D01*
X172450000Y-76740000D02*
X172450000Y-75715000D01*
G04 #@! TD*
%LPC*%
D13*
G04 #@! TO.C,J3*
X186690000Y-63500000D03*
X148590000Y-63500000D03*
X186690000Y-100330000D03*
X148590000Y-100330000D03*
D14*
X154940000Y-62230000D03*
D15*
X157480000Y-62230000D03*
X167640000Y-62230000D03*
X170180000Y-62230000D03*
X172720000Y-62230000D03*
X175260000Y-62230000D03*
X177800000Y-62230000D03*
X160020000Y-62230000D03*
X162560000Y-62230000D03*
X165100000Y-62230000D03*
X180340000Y-62230000D03*
G04 #@! TD*
D16*
G04 #@! TO.C,J5*
X183261000Y-80350000D03*
X183261000Y-84750000D03*
G04 #@! TD*
D17*
G04 #@! TO.C,C1*
G36*
X160943779Y-84755266D02*
X160969309Y-84759053D01*
X160994345Y-84765325D01*
X161018646Y-84774020D01*
X161041977Y-84785055D01*
X161064115Y-84798323D01*
X161084845Y-84813698D01*
X161103969Y-84831031D01*
X161121302Y-84850155D01*
X161136677Y-84870885D01*
X161149945Y-84893023D01*
X161160980Y-84916354D01*
X161169675Y-84940655D01*
X161175947Y-84965691D01*
X161179734Y-84991221D01*
X161181000Y-85017000D01*
X161181000Y-85643000D01*
X161179734Y-85668779D01*
X161175947Y-85694309D01*
X161169675Y-85719345D01*
X161160980Y-85743646D01*
X161149945Y-85766977D01*
X161136677Y-85789115D01*
X161121302Y-85809845D01*
X161103969Y-85828969D01*
X161084845Y-85846302D01*
X161064115Y-85861677D01*
X161041977Y-85874945D01*
X161018646Y-85885980D01*
X160994345Y-85894675D01*
X160969309Y-85900947D01*
X160943779Y-85904734D01*
X160918000Y-85906000D01*
X160392000Y-85906000D01*
X160366221Y-85904734D01*
X160340691Y-85900947D01*
X160315655Y-85894675D01*
X160291354Y-85885980D01*
X160268023Y-85874945D01*
X160245885Y-85861677D01*
X160225155Y-85846302D01*
X160206031Y-85828969D01*
X160188698Y-85809845D01*
X160173323Y-85789115D01*
X160160055Y-85766977D01*
X160149020Y-85743646D01*
X160140325Y-85719345D01*
X160134053Y-85694309D01*
X160130266Y-85668779D01*
X160129000Y-85643000D01*
X160129000Y-85017000D01*
X160130266Y-84991221D01*
X160134053Y-84965691D01*
X160140325Y-84940655D01*
X160149020Y-84916354D01*
X160160055Y-84893023D01*
X160173323Y-84870885D01*
X160188698Y-84850155D01*
X160206031Y-84831031D01*
X160225155Y-84813698D01*
X160245885Y-84798323D01*
X160268023Y-84785055D01*
X160291354Y-84774020D01*
X160315655Y-84765325D01*
X160340691Y-84759053D01*
X160366221Y-84755266D01*
X160392000Y-84754000D01*
X160918000Y-84754000D01*
X160943779Y-84755266D01*
X160943779Y-84755266D01*
G37*
D18*
X160655000Y-85330000D03*
D17*
G36*
X160943779Y-83005266D02*
X160969309Y-83009053D01*
X160994345Y-83015325D01*
X161018646Y-83024020D01*
X161041977Y-83035055D01*
X161064115Y-83048323D01*
X161084845Y-83063698D01*
X161103969Y-83081031D01*
X161121302Y-83100155D01*
X161136677Y-83120885D01*
X161149945Y-83143023D01*
X161160980Y-83166354D01*
X161169675Y-83190655D01*
X161175947Y-83215691D01*
X161179734Y-83241221D01*
X161181000Y-83267000D01*
X161181000Y-83893000D01*
X161179734Y-83918779D01*
X161175947Y-83944309D01*
X161169675Y-83969345D01*
X161160980Y-83993646D01*
X161149945Y-84016977D01*
X161136677Y-84039115D01*
X161121302Y-84059845D01*
X161103969Y-84078969D01*
X161084845Y-84096302D01*
X161064115Y-84111677D01*
X161041977Y-84124945D01*
X161018646Y-84135980D01*
X160994345Y-84144675D01*
X160969309Y-84150947D01*
X160943779Y-84154734D01*
X160918000Y-84156000D01*
X160392000Y-84156000D01*
X160366221Y-84154734D01*
X160340691Y-84150947D01*
X160315655Y-84144675D01*
X160291354Y-84135980D01*
X160268023Y-84124945D01*
X160245885Y-84111677D01*
X160225155Y-84096302D01*
X160206031Y-84078969D01*
X160188698Y-84059845D01*
X160173323Y-84039115D01*
X160160055Y-84016977D01*
X160149020Y-83993646D01*
X160140325Y-83969345D01*
X160134053Y-83944309D01*
X160130266Y-83918779D01*
X160129000Y-83893000D01*
X160129000Y-83267000D01*
X160130266Y-83241221D01*
X160134053Y-83215691D01*
X160140325Y-83190655D01*
X160149020Y-83166354D01*
X160160055Y-83143023D01*
X160173323Y-83120885D01*
X160188698Y-83100155D01*
X160206031Y-83081031D01*
X160225155Y-83063698D01*
X160245885Y-83048323D01*
X160268023Y-83035055D01*
X160291354Y-83024020D01*
X160315655Y-83015325D01*
X160340691Y-83009053D01*
X160366221Y-83005266D01*
X160392000Y-83004000D01*
X160918000Y-83004000D01*
X160943779Y-83005266D01*
X160943779Y-83005266D01*
G37*
D18*
X160655000Y-83580000D03*
G04 #@! TD*
D17*
G04 #@! TO.C,C3*
G36*
X176183779Y-76020266D02*
X176209309Y-76024053D01*
X176234345Y-76030325D01*
X176258646Y-76039020D01*
X176281977Y-76050055D01*
X176304115Y-76063323D01*
X176324845Y-76078698D01*
X176343969Y-76096031D01*
X176361302Y-76115155D01*
X176376677Y-76135885D01*
X176389945Y-76158023D01*
X176400980Y-76181354D01*
X176409675Y-76205655D01*
X176415947Y-76230691D01*
X176419734Y-76256221D01*
X176421000Y-76282000D01*
X176421000Y-76908000D01*
X176419734Y-76933779D01*
X176415947Y-76959309D01*
X176409675Y-76984345D01*
X176400980Y-77008646D01*
X176389945Y-77031977D01*
X176376677Y-77054115D01*
X176361302Y-77074845D01*
X176343969Y-77093969D01*
X176324845Y-77111302D01*
X176304115Y-77126677D01*
X176281977Y-77139945D01*
X176258646Y-77150980D01*
X176234345Y-77159675D01*
X176209309Y-77165947D01*
X176183779Y-77169734D01*
X176158000Y-77171000D01*
X175632000Y-77171000D01*
X175606221Y-77169734D01*
X175580691Y-77165947D01*
X175555655Y-77159675D01*
X175531354Y-77150980D01*
X175508023Y-77139945D01*
X175485885Y-77126677D01*
X175465155Y-77111302D01*
X175446031Y-77093969D01*
X175428698Y-77074845D01*
X175413323Y-77054115D01*
X175400055Y-77031977D01*
X175389020Y-77008646D01*
X175380325Y-76984345D01*
X175374053Y-76959309D01*
X175370266Y-76933779D01*
X175369000Y-76908000D01*
X175369000Y-76282000D01*
X175370266Y-76256221D01*
X175374053Y-76230691D01*
X175380325Y-76205655D01*
X175389020Y-76181354D01*
X175400055Y-76158023D01*
X175413323Y-76135885D01*
X175428698Y-76115155D01*
X175446031Y-76096031D01*
X175465155Y-76078698D01*
X175485885Y-76063323D01*
X175508023Y-76050055D01*
X175531354Y-76039020D01*
X175555655Y-76030325D01*
X175580691Y-76024053D01*
X175606221Y-76020266D01*
X175632000Y-76019000D01*
X176158000Y-76019000D01*
X176183779Y-76020266D01*
X176183779Y-76020266D01*
G37*
D18*
X175895000Y-76595000D03*
D17*
G36*
X176183779Y-77770266D02*
X176209309Y-77774053D01*
X176234345Y-77780325D01*
X176258646Y-77789020D01*
X176281977Y-77800055D01*
X176304115Y-77813323D01*
X176324845Y-77828698D01*
X176343969Y-77846031D01*
X176361302Y-77865155D01*
X176376677Y-77885885D01*
X176389945Y-77908023D01*
X176400980Y-77931354D01*
X176409675Y-77955655D01*
X176415947Y-77980691D01*
X176419734Y-78006221D01*
X176421000Y-78032000D01*
X176421000Y-78658000D01*
X176419734Y-78683779D01*
X176415947Y-78709309D01*
X176409675Y-78734345D01*
X176400980Y-78758646D01*
X176389945Y-78781977D01*
X176376677Y-78804115D01*
X176361302Y-78824845D01*
X176343969Y-78843969D01*
X176324845Y-78861302D01*
X176304115Y-78876677D01*
X176281977Y-78889945D01*
X176258646Y-78900980D01*
X176234345Y-78909675D01*
X176209309Y-78915947D01*
X176183779Y-78919734D01*
X176158000Y-78921000D01*
X175632000Y-78921000D01*
X175606221Y-78919734D01*
X175580691Y-78915947D01*
X175555655Y-78909675D01*
X175531354Y-78900980D01*
X175508023Y-78889945D01*
X175485885Y-78876677D01*
X175465155Y-78861302D01*
X175446031Y-78843969D01*
X175428698Y-78824845D01*
X175413323Y-78804115D01*
X175400055Y-78781977D01*
X175389020Y-78758646D01*
X175380325Y-78734345D01*
X175374053Y-78709309D01*
X175370266Y-78683779D01*
X175369000Y-78658000D01*
X175369000Y-78032000D01*
X175370266Y-78006221D01*
X175374053Y-77980691D01*
X175380325Y-77955655D01*
X175389020Y-77931354D01*
X175400055Y-77908023D01*
X175413323Y-77885885D01*
X175428698Y-77865155D01*
X175446031Y-77846031D01*
X175465155Y-77828698D01*
X175485885Y-77813323D01*
X175508023Y-77800055D01*
X175531354Y-77789020D01*
X175555655Y-77780325D01*
X175580691Y-77774053D01*
X175606221Y-77770266D01*
X175632000Y-77769000D01*
X176158000Y-77769000D01*
X176183779Y-77770266D01*
X176183779Y-77770266D01*
G37*
D18*
X175895000Y-78345000D03*
G04 #@! TD*
D17*
G04 #@! TO.C,C2*
G36*
X170913779Y-89010266D02*
X170939309Y-89014053D01*
X170964345Y-89020325D01*
X170988646Y-89029020D01*
X171011977Y-89040055D01*
X171034115Y-89053323D01*
X171054845Y-89068698D01*
X171073969Y-89086031D01*
X171091302Y-89105155D01*
X171106677Y-89125885D01*
X171119945Y-89148023D01*
X171130980Y-89171354D01*
X171139675Y-89195655D01*
X171145947Y-89220691D01*
X171149734Y-89246221D01*
X171151000Y-89272000D01*
X171151000Y-89798000D01*
X171149734Y-89823779D01*
X171145947Y-89849309D01*
X171139675Y-89874345D01*
X171130980Y-89898646D01*
X171119945Y-89921977D01*
X171106677Y-89944115D01*
X171091302Y-89964845D01*
X171073969Y-89983969D01*
X171054845Y-90001302D01*
X171034115Y-90016677D01*
X171011977Y-90029945D01*
X170988646Y-90040980D01*
X170964345Y-90049675D01*
X170939309Y-90055947D01*
X170913779Y-90059734D01*
X170888000Y-90061000D01*
X170262000Y-90061000D01*
X170236221Y-90059734D01*
X170210691Y-90055947D01*
X170185655Y-90049675D01*
X170161354Y-90040980D01*
X170138023Y-90029945D01*
X170115885Y-90016677D01*
X170095155Y-90001302D01*
X170076031Y-89983969D01*
X170058698Y-89964845D01*
X170043323Y-89944115D01*
X170030055Y-89921977D01*
X170019020Y-89898646D01*
X170010325Y-89874345D01*
X170004053Y-89849309D01*
X170000266Y-89823779D01*
X169999000Y-89798000D01*
X169999000Y-89272000D01*
X170000266Y-89246221D01*
X170004053Y-89220691D01*
X170010325Y-89195655D01*
X170019020Y-89171354D01*
X170030055Y-89148023D01*
X170043323Y-89125885D01*
X170058698Y-89105155D01*
X170076031Y-89086031D01*
X170095155Y-89068698D01*
X170115885Y-89053323D01*
X170138023Y-89040055D01*
X170161354Y-89029020D01*
X170185655Y-89020325D01*
X170210691Y-89014053D01*
X170236221Y-89010266D01*
X170262000Y-89009000D01*
X170888000Y-89009000D01*
X170913779Y-89010266D01*
X170913779Y-89010266D01*
G37*
D18*
X170575000Y-89535000D03*
D17*
G36*
X172663779Y-89010266D02*
X172689309Y-89014053D01*
X172714345Y-89020325D01*
X172738646Y-89029020D01*
X172761977Y-89040055D01*
X172784115Y-89053323D01*
X172804845Y-89068698D01*
X172823969Y-89086031D01*
X172841302Y-89105155D01*
X172856677Y-89125885D01*
X172869945Y-89148023D01*
X172880980Y-89171354D01*
X172889675Y-89195655D01*
X172895947Y-89220691D01*
X172899734Y-89246221D01*
X172901000Y-89272000D01*
X172901000Y-89798000D01*
X172899734Y-89823779D01*
X172895947Y-89849309D01*
X172889675Y-89874345D01*
X172880980Y-89898646D01*
X172869945Y-89921977D01*
X172856677Y-89944115D01*
X172841302Y-89964845D01*
X172823969Y-89983969D01*
X172804845Y-90001302D01*
X172784115Y-90016677D01*
X172761977Y-90029945D01*
X172738646Y-90040980D01*
X172714345Y-90049675D01*
X172689309Y-90055947D01*
X172663779Y-90059734D01*
X172638000Y-90061000D01*
X172012000Y-90061000D01*
X171986221Y-90059734D01*
X171960691Y-90055947D01*
X171935655Y-90049675D01*
X171911354Y-90040980D01*
X171888023Y-90029945D01*
X171865885Y-90016677D01*
X171845155Y-90001302D01*
X171826031Y-89983969D01*
X171808698Y-89964845D01*
X171793323Y-89944115D01*
X171780055Y-89921977D01*
X171769020Y-89898646D01*
X171760325Y-89874345D01*
X171754053Y-89849309D01*
X171750266Y-89823779D01*
X171749000Y-89798000D01*
X171749000Y-89272000D01*
X171750266Y-89246221D01*
X171754053Y-89220691D01*
X171760325Y-89195655D01*
X171769020Y-89171354D01*
X171780055Y-89148023D01*
X171793323Y-89125885D01*
X171808698Y-89105155D01*
X171826031Y-89086031D01*
X171845155Y-89068698D01*
X171865885Y-89053323D01*
X171888023Y-89040055D01*
X171911354Y-89029020D01*
X171935655Y-89020325D01*
X171960691Y-89014053D01*
X171986221Y-89010266D01*
X172012000Y-89009000D01*
X172638000Y-89009000D01*
X172663779Y-89010266D01*
X172663779Y-89010266D01*
G37*
D18*
X172325000Y-89535000D03*
G04 #@! TD*
D19*
G04 #@! TO.C,J2*
X173990000Y-101600000D03*
D20*
X171450000Y-101600000D03*
X168910000Y-101600000D03*
X166370000Y-101600000D03*
X163830000Y-101600000D03*
X161290000Y-101600000D03*
G04 #@! TD*
D21*
G04 #@! TO.C,U1*
X172025000Y-76215000D03*
X171525000Y-76215000D03*
X171025000Y-76215000D03*
X170525000Y-76215000D03*
X170025000Y-76215000D03*
X169525000Y-76215000D03*
X169025000Y-76215000D03*
X168525000Y-76215000D03*
X168025000Y-76215000D03*
X167525000Y-76215000D03*
X167025000Y-76215000D03*
X166525000Y-76215000D03*
X166025000Y-76215000D03*
X165525000Y-76215000D03*
X165025000Y-76215000D03*
X164525000Y-76215000D03*
D22*
X162575000Y-78165000D03*
X162575000Y-78665000D03*
X162575000Y-79165000D03*
X162575000Y-79665000D03*
X162575000Y-80165000D03*
X162575000Y-80665000D03*
X162575000Y-81165000D03*
X162575000Y-81665000D03*
X162575000Y-82165000D03*
X162575000Y-82665000D03*
X162575000Y-83165000D03*
X162575000Y-83665000D03*
X162575000Y-84165000D03*
X162575000Y-84665000D03*
X162575000Y-85165000D03*
X162575000Y-85665000D03*
D21*
X164525000Y-87615000D03*
X165025000Y-87615000D03*
X165525000Y-87615000D03*
X166025000Y-87615000D03*
X166525000Y-87615000D03*
X167025000Y-87615000D03*
X167525000Y-87615000D03*
X168025000Y-87615000D03*
X168525000Y-87615000D03*
X169025000Y-87615000D03*
X169525000Y-87615000D03*
X170025000Y-87615000D03*
X170525000Y-87615000D03*
X171025000Y-87615000D03*
X171525000Y-87615000D03*
X172025000Y-87615000D03*
D22*
X173975000Y-85665000D03*
X173975000Y-85165000D03*
X173975000Y-84665000D03*
X173975000Y-84165000D03*
X173975000Y-83665000D03*
X173975000Y-83165000D03*
X173975000Y-82665000D03*
X173975000Y-82165000D03*
X173975000Y-81665000D03*
X173975000Y-81165000D03*
X173975000Y-80665000D03*
X173975000Y-80165000D03*
X173975000Y-79665000D03*
X173975000Y-79165000D03*
X173975000Y-78665000D03*
X173975000Y-78165000D03*
G04 #@! TD*
M02*
